<svg width="712" height="244" viewBox="0 0 712 244" fill="none" xmlns="http://www.w3.org/2000/svg">
<g clip-path="url(#clip0_16765_49554)">
<rect width="712" height="244" rx="32" fill="#9DEBCD"/>
<path d="M409.069 196.575C409.069 162.833 440.615 135.48 479.528 135.48H697.949C736.862 135.48 768.407 162.833 768.407 196.575V251.559H409.069V196.575Z" fill="#C5F1D9"/>
<path d="M458.314 152.943C430.093 147.143 433.882 123.321 440.131 110.092C440.785 108.708 442.442 108.142 443.838 108.77C476.672 123.526 467.346 144.244 458.314 152.943Z" fill="#4DCEB0"/>
<path d="M492.788 140.178C476.335 146.823 466.357 181.465 464.201 200.025C464.1 200.893 465.099 201.413 465.777 200.862C491.393 180.061 499.141 156.978 499.163 144.755C499.17 141.311 495.981 138.889 492.788 140.178Z" fill="#4DCEB0"/>
<path d="M458.314 208.474C437.938 191.491 433.026 173.498 433.016 164.82C433.014 163.671 434.09 162.869 435.146 163.324C446.153 168.068 455.082 194.899 458.314 208.474Z" fill="#212C30"/>
<path d="M452.659 135.462C458.828 148.659 467.773 186.365 454.201 231.612" stroke="black" stroke-width="2.2" stroke-linecap="round"/>
<path d="M674.932 180.194C695.951 175.927 693.585 158.657 689.009 148.634C688.378 147.251 686.75 146.684 685.367 147.314C661.099 158.364 668.126 173.719 674.932 180.194Z" fill="#4DCEB0"/>
<path d="M676.983 226.469C693.233 212.989 697.383 198.721 697.541 191.558C697.566 190.41 696.49 189.606 695.456 190.107C686.674 194.36 679.574 215.635 676.983 226.469Z" fill="#212C30"/>
<path d="M681.096 162.713C674.927 175.91 671.545 211.045 681.096 249.608" stroke="black" stroke-width="2.2" stroke-linecap="round"/>
<path d="M511.019 232.909C499.287 226.172 493.341 230.779 491.834 233.924C496.284 235.824 499.482 244.1 500.525 248.001C503.295 247.656 511.622 247.473 522.77 249.493C533.918 251.514 536.666 250.835 537.367 248.721C539.171 243.286 527.274 239.762 523.056 239.095C519.682 238.562 513.626 234.749 511.019 232.909Z" fill="url(#paint0_linear_16765_49554)"/>
<path d="M481.338 219.272C481.75 215.981 491.106 199.048 495.732 190.992L550.224 210.531C550.635 217.523 554.508 220.985 556.393 221.842C572.021 228.012 579.355 234.011 581.069 236.239C584.153 240.352 587.34 250.43 575.414 257.834C563.487 265.238 532.403 250.979 518.352 242.923C492.031 251.561 467.973 255.778 459.233 256.806C450.494 257.32 433.016 254.544 433.016 239.324C433.016 224.105 448.438 219.614 456.149 219.272H481.338Z" fill="#3590F1"/>
<path d="M593.406 113.352C596.696 110.473 603.002 109.067 605.744 108.725C604.202 119.522 608.829 120.036 610.885 126.721C612.53 132.068 612.941 134.433 612.427 135.461C616.128 135.873 615.683 139.403 615.512 140.603C615.923 142.248 614.141 147.459 612.941 148.316C605.744 150.887 604.202 147.802 603.174 147.287C602.351 146.876 596.662 149.173 593.406 151.401C590.528 153.046 589.465 155.171 589.808 156.542C579.938 157.365 577.127 150.03 576.956 146.259C576.956 145.402 577.265 143.585 578.498 143.174C579.732 142.763 580.726 140.946 581.069 140.089C579.424 137.21 578.67 134.09 578.498 132.891C576.853 126.309 582.268 120.208 585.181 117.98C584.359 115.512 584.838 113.866 585.181 113.352C587.649 113.763 591.693 113.524 593.406 113.352Z" fill="#FCA489"/>
<path d="M608.315 123.682C601.323 114.632 605.059 107.228 607.801 104.657C614.792 98.8987 625.259 104.143 628.878 106.154C633.504 108.725 643.272 117.466 641.215 131.862C640.103 139.649 639.673 142.146 641.729 145.231C642.536 146.441 652.011 154.018 650.469 162.244C648.926 170.471 642.243 172.528 644.814 180.24C647.384 187.953 657.152 193.609 656.123 202.35C655.301 209.342 651.668 212.804 649.955 213.661H605.23C604.716 212.119 603.071 206.154 600.604 194.637C597.519 180.24 594.435 166.872 591.864 162.759C589.808 159.468 589.294 156.931 589.294 156.074C590.116 150.727 598.205 145.62 602.146 143.734C604.373 146.134 609.857 149.596 613.969 144.248C618.082 138.901 613.627 136.193 610.885 135.508C612.119 130.983 609.685 125.738 608.315 123.682Z" fill="#212B2D"/>
<path d="M597.668 119.522C597.531 121.163 598.365 124.485 602.793 124.649" stroke="black" stroke-width="2" stroke-linecap="round"/>
<path d="M580.04 152.943C583.33 156.234 587.237 156.2 589.293 156.028C589.293 157.057 590.322 159.581 590.836 160.609C592.481 162.666 595.634 170.036 597.005 173.463C600.946 191.117 609.184 227.395 610.007 229.041C610.829 230.686 611.913 230.879 612.427 231.05C621.509 232.764 641.441 237.576 649.666 238.81C657.891 240.044 660.064 240.352 666.404 241.381C690.052 241.895 693.136 245.447 695.706 245.961C697.763 246.373 698.62 247.161 698.791 247.504C701.361 248.065 700.847 248.065 701.875 248.579C703.145 249.214 703.646 251.253 699.944 251.664C696.243 252.075 687.139 250.978 683.883 250.636C675.658 252.178 670.003 250.682 665.89 250.636C655.095 251.197 624.25 251.103 603.687 250.075C599.986 250.075 596.319 246.304 594.948 244.419C588.779 237.015 577.298 199.172 572.329 181.176C567.188 184.261 556.084 191.254 552.794 194.544C549.504 197.835 549.71 207.227 550.224 211.512L494.704 192.488C499.331 182.204 510.64 165.237 515.781 157.01C519.537 151 531.582 139.958 538.603 133.91C539.83 132.853 540.922 131.649 541.842 130.317C559.167 105.228 572.8 88.6049 593.406 68.6196C610.37 52.1663 635.082 40.9694 646.356 36.7411C654.581 33.6561 654.459 33.989 658.693 33.142C661.264 32.6278 664.04 32.4221 664.862 33.6562C665.685 34.8902 664.348 36.0556 663.32 36.7412C664.691 36.227 668.769 35.0958 670.003 36.7412C671.237 38.3865 668.289 39.4834 666.918 40.3404C667.775 40.169 669.694 40.2375 670.517 41.8829C671.339 43.5282 669.489 44.9679 668.461 45.4821L654.067 51.1379L660.235 52.1663C663.114 52.9889 663.491 54.9085 663.32 55.7655C663.32 57.3547 660.407 57.1833 658.693 57.3547C655.095 57.3547 649.851 57.4575 645.327 57.8689C640.804 58.2802 635.342 61.0876 634.532 61.4213C628.65 63.8438 622.113 67.2853 612.227 75.3313C608.184 78.6211 604.548 82.385 601.302 86.4626C584.979 106.968 575.296 124.586 572.329 131.302C571.815 132.33 570.89 134.901 571.301 136.958C571.708 138.996 576.189 141.753 578.437 143.137L578.498 143.174C577.47 144.888 576.75 149.653 580.04 152.943Z" fill="#FBA388"/>
<path d="M554.229 113.071C560.39 116.905 568.889 120.384 578.197 120.088C575.362 125.003 573.404 128.868 572.329 131.302C571.815 132.33 570.89 134.901 571.301 136.958C571.709 138.996 576.189 141.753 578.438 143.137L578.498 143.174C577.47 144.888 576.75 149.653 580.04 152.943C583.33 156.234 587.238 156.2 589.294 156.028C589.294 157.057 590.322 159.581 590.836 160.609C592.481 162.666 595.634 170.036 597.005 173.464C598.368 179.571 600.247 187.907 602.154 196.267C596.136 199.481 588.349 201.866 578.518 202.271C576.061 194.326 573.878 186.786 572.329 181.176C567.188 184.261 556.084 191.254 552.794 194.545C549.504 197.836 549.71 207.227 550.224 211.512L494.704 192.488C499.331 182.205 510.641 165.236 515.781 157.01C519.537 150.999 531.582 139.958 538.604 133.91C539.83 132.854 540.922 131.649 541.843 130.317C546.149 124.089 550.229 118.411 554.229 113.071Z" fill="#4DCDB0"/>
<path d="M484.059 209.869C497.188 206.611 501.643 212.672 502.229 216.11C497.428 216.716 492.082 223.797 490.01 227.262C487.441 226.17 479.484 223.709 468.209 222.593C456.935 221.477 454.093 221.498 454.093 219.271C454.093 215.672 462.318 212.073 470.786 212.515C474.197 212.693 481.047 210.923 484.059 209.869Z" fill="url(#paint1_linear_16765_49554)"/>
<path d="M489.2 58.4238C489.84 56.6723 492.317 56.6723 492.957 58.4238L494.282 62.0493C494.489 62.6172 494.942 63.0607 495.514 63.2559L499.063 64.4664C500.869 65.0824 500.869 67.6362 499.063 68.2522L495.514 69.4628C494.942 69.658 494.489 70.1015 494.282 70.6693L492.957 74.2948C492.317 76.0464 489.84 76.0464 489.2 74.2948L487.875 70.6693C487.668 70.1015 487.215 69.658 486.643 69.4628L483.094 68.2522C481.288 67.6362 481.288 65.0824 483.094 64.4664L486.643 63.2559C487.215 63.0607 487.668 62.6172 487.875 62.0493L489.2 58.4238Z" fill="#E5FFED"/>
<ellipse cx="520.747" cy="98.1744" rx="3.9278" ry="3.92248" fill="#70BEFF"/>
<path d="M396.924 206.114C389.64 199.609 383.578 198.243 379.598 198.652C376.911 198.929 375.694 201.791 376.739 204.28C381.997 216.795 398.424 223.771 406.742 225.81C406.588 217.451 400.133 209.196 396.924 206.114Z" fill="#7CD29F"/>
<path d="M403.784 235.857C397.101 232.955 392.337 233.443 389.486 235.057C387.4 236.239 387.524 239.478 389.228 241.603C398.126 252.698 414.315 256.379 421.954 254.623C418.773 246.265 409.18 237.909 403.784 235.857Z" fill="#7CD29F"/>
<path d="M390.51 209.862C390.799 209.396 391.413 209.252 391.88 209.542C394.985 211.467 402.908 218.55 411.381 232.114L412.203 233.447L412.208 233.457L412.214 233.466C415.812 239.687 424.071 254.945 428.262 266.142C428.455 266.657 428.193 267.229 427.679 267.421C427.164 267.612 426.591 267.351 426.399 266.837C422.272 255.812 414.094 240.691 410.502 234.478L409.69 233.161C401.32 219.761 393.594 212.945 390.831 211.231C390.364 210.942 390.22 210.328 390.51 209.862Z" fill="black"/>
<path d="M398.397 240.932C398.428 240.384 398.898 239.966 399.447 239.997C402.544 240.174 406.916 241.874 411.147 244.24C415.407 246.623 419.688 249.773 422.599 253.003C422.967 253.411 422.934 254.04 422.526 254.407C422.118 254.774 421.488 254.741 421.12 254.333C418.397 251.312 414.309 248.286 410.175 245.974C406.013 243.647 401.967 242.132 399.334 241.981C398.785 241.949 398.366 241.48 398.397 240.932Z" fill="black"/>
</g>
<defs>
<linearGradient id="paint0_linear_16765_49554" x1="514.056" y1="228.686" x2="515.272" y2="251.654" gradientUnits="userSpaceOnUse">
<stop stop-color="#FFBEA6"/>
<stop offset="1" stop-color="#F8AC8E"/>
</linearGradient>
<linearGradient id="paint1_linear_16765_49554" x1="482.297" y1="204.975" x2="474.825" y2="226.727" gradientUnits="userSpaceOnUse">
<stop stop-color="#FFBEA6"/>
<stop offset="1" stop-color="#F8AC8E"/>
</linearGradient>
<clipPath id="clip0_16765_49554">
<rect width="712" height="244" rx="32" fill="white"/>
</clipPath>
</defs>
</svg>
