<svg width="87" height="21" viewBox="0 0 87 21" fill="none" xmlns="http://www.w3.org/2000/svg">
<path d="M1.60337 12.872C1.28337 12.872 1.12337 12.712 1.12337 12.392V6.152C1.12337 5.832 1.28337 5.672 1.60337 5.672H5.17937C5.49937 5.672 5.65937 5.832 5.65937 6.152V9.32H14.1314V4.952H1.38737C1.05137 4.952 0.883374 4.784 0.883374 4.448V1.88C0.883374 1.56 1.05137 1.4 1.38737 1.4H18.1634C18.4994 1.4 18.6674 1.56 18.6674 1.88V12.392C18.6674 12.712 18.4994 12.872 18.1634 12.872H1.60337ZM0.931374 20C0.595374 20 0.427374 19.832 0.427374 19.496V16.808C0.427374 16.488 0.595374 16.328 0.931374 16.328H7.57937V14.336C7.57937 14.016 7.73937 13.856 8.05937 13.856H11.7554C12.0754 13.856 12.2354 14.016 12.2354 14.336V16.328H18.8594C19.1954 16.328 19.3634 16.488 19.3634 16.808V19.496C19.3634 19.832 19.1954 20 18.8594 20H0.931374ZM22.3109 20.36C21.9909 20.36 21.8309 20.2 21.8309 19.88V12.104C21.8309 11.784 21.9909 11.624 22.3109 11.624H25.7669C26.0869 11.624 26.2469 11.784 26.2469 12.104V17.552H35.0789V15.896H27.4709C27.1349 15.896 26.9669 15.736 26.9669 15.416V13.688C26.9669 13.368 27.1349 13.208 27.4709 13.208H35.0789V12.104C35.0789 11.784 35.2469 11.624 35.5829 11.624H39.0149C39.3509 11.624 39.5189 11.784 39.5189 12.104V19.88C39.5189 20.2 39.3509 20.36 39.0149 20.36H22.3109ZM21.0389 1.616C21.0389 1.296 21.2069 1.136 21.5429 1.136H32.6789C33.0149 1.136 33.1829 1.296 33.1829 1.616V3.704C33.1829 4.024 33.0149 4.184 32.6789 4.184H29.5589L25.6469 10.04C25.5829 10.152 25.5029 10.248 25.4069 10.328C25.3109 10.392 25.1909 10.424 25.0469 10.424H21.2789C21.0869 10.424 20.9509 10.376 20.8709 10.28C20.8069 10.168 20.8149 10.024 20.8949 9.848L24.5669 4.184H21.5429C21.2069 4.184 21.0389 4.024 21.0389 3.704V1.616ZM35.5589 10.448C35.2229 10.448 35.0549 10.288 35.0549 9.968V1.4C35.0549 1.064 35.2229 0.895998 35.5589 0.895998H38.9909C39.3269 0.895998 39.4949 1.064 39.4949 1.4V9.968C39.4949 10.288 39.3269 10.448 38.9909 10.448H35.5589ZM29.2949 10.256C29.0709 10.256 28.8869 10.136 28.7429 9.896L27.8789 8.576C27.7669 8.368 27.7749 8.16 27.9029 7.952L29.8229 5.072C30.0469 4.72 30.2629 4.72 30.4709 5.072L33.4229 9.728C33.5669 10.08 33.4469 10.256 33.0629 10.256H29.2949ZM60.3816 20.48C60.0456 20.48 59.8776 20.32 59.8776 20V1.4C59.8776 1.064 60.0456 0.895998 60.3816 0.895998H63.8136C64.1496 0.895998 64.3176 1.064 64.3176 1.4V8.024H65.5656C65.8856 8.024 66.0456 8.192 66.0456 8.528V11.72C66.0456 12.04 65.8856 12.2 65.5656 12.2H64.3176V20C64.3176 20.32 64.1496 20.48 63.8136 20.48H60.3816ZM46.4136 4.928C46.0936 4.928 45.9336 4.768 45.9336 4.448V1.88C45.9336 1.544 46.0936 1.376 46.4136 1.376H57.6936C58.0296 1.376 58.1976 1.536 58.1976 1.856V19.64C58.1976 19.96 58.0296 20.12 57.6936 20.12H46.6776C46.3416 20.12 46.1736 19.96 46.1736 19.64V6.128C46.1736 5.808 46.3416 5.648 46.6776 5.648H50.0856C50.4216 5.648 50.5896 5.808 50.5896 6.128V16.568H53.7816V4.928H46.4136ZM67.3371 12.656C67.3371 12.32 67.4971 12.152 67.8171 12.152H84.2811C84.6171 12.152 84.7851 12.312 84.7851 12.632V19.88C84.7851 20.2 84.6171 20.36 84.2811 20.36H67.8411C67.5051 20.36 67.3371 20.2 67.3371 19.88V12.656ZM71.8731 15.08V17.432H80.2251V15.08H71.8731ZM80.8491 10.952C80.5131 10.952 80.3451 10.792 80.3451 10.472V1.4C80.3451 1.064 80.5131 0.895998 80.8491 0.895998H84.2811C84.6171 0.895998 84.7851 1.064 84.7851 1.4V4.064H85.9131C86.2331 4.064 86.3931 4.232 86.3931 4.568V7.376C86.3931 7.696 86.2331 7.856 85.9131 7.856H84.7851V10.472C84.7851 10.792 84.6171 10.952 84.2811 10.952H80.8491ZM67.4811 11.168C67.1611 11.2 67.0011 11.04 67.0011 10.688V8.168C67.0011 7.88 67.1611 7.72 67.4811 7.688C68.2491 7.624 68.9931 7.504 69.7131 7.328C70.4491 7.136 71.1131 6.904 71.7051 6.632C72.2971 6.344 72.7931 6.024 73.1931 5.672C73.5931 5.304 73.8491 4.928 73.9611 4.544H67.1211C66.8011 4.544 66.6411 4.384 66.6411 4.064V1.616C66.6411 1.296 66.8011 1.136 67.1211 1.136H78.2811C78.6171 1.136 78.7851 1.304 78.7851 1.64V3.608C78.7851 4.488 78.6171 5.28 78.2811 5.984C77.9451 6.688 77.4891 7.312 76.9131 7.856C76.3531 8.384 75.6971 8.848 74.9451 9.248C74.1931 9.632 73.4011 9.96 72.5691 10.232C71.7371 10.488 70.8811 10.696 70.0011 10.856C69.1211 11 68.2811 11.104 67.4811 11.168Z" fill="white"/>
</svg>
