<svg width="64" height="64" viewBox="0 0 64 64" fill="none" xmlns="http://www.w3.org/2000/svg">
<path d="M19.1157 29.988C19.1157 32.5567 17.0333 34.6391 14.4646 34.6391C11.8958 34.6391 9.81348 32.5567 9.81348 29.988C9.81348 27.4193 11.8958 25.3369 14.4646 25.3369C17.0333 25.3369 19.1157 27.4193 19.1157 29.988Z" fill="#DEFFF0"/>
<path d="M17.7868 29.988C17.7868 28.1532 16.2994 26.6658 14.4646 26.6658C12.6298 26.6658 11.1424 28.1532 11.1424 29.988C11.1424 31.8228 12.6298 33.3102 14.4646 33.3102V34.6391C11.8958 34.6391 9.81348 32.5567 9.81348 29.988C9.81348 27.4193 11.8958 25.3369 14.4646 25.3369C17.0333 25.3369 19.1157 27.4193 19.1157 29.988C19.1157 32.5567 17.0333 34.6391 14.4646 34.6391V33.3102C16.2994 33.3102 17.7868 31.8228 17.7868 29.988Z" fill="#00BB86"/>
<path d="M43.39 14.6783C43.8132 13.5082 45.1048 12.9026 46.275 13.3258C47.4452 13.749 48.0507 15.0406 47.6275 16.2108L36.1298 48.0035L31.8923 46.471L43.39 14.6783Z" fill="white"/>
<path d="M46.3028 15.731C46.461 15.2928 46.2334 14.809 45.7952 14.6506C45.3572 14.4925 44.8739 14.7191 44.7152 15.1569L33.6966 45.6247L35.2843 46.1989L46.3028 15.731ZM36.1301 48.003L31.8925 46.4705L43.3902 14.6777C43.8136 13.5082 45.1046 12.9029 46.2744 13.3256C47.4443 13.7487 48.0506 15.0402 47.6278 16.2102L36.1301 48.003Z" fill="#00BB86"/>
<path d="M45.0875 16.6075C37.3458 13.8078 28.9209 17.2476 25.6557 24.3211C25.3197 25.049 25.3955 25.8909 25.7778 26.5957C26.8637 28.5968 29.2751 29.4689 31.3898 28.6252L32.5606 28.1581L32.6766 28.3718C34.0391 30.883 37.0651 31.9773 39.7187 30.9186L39.9446 30.8285L40.0605 31.0422C41.4231 33.5533 44.4491 34.6477 47.1026 33.5889L47.3285 33.4988L47.9297 34.6068C49.0155 36.608 51.427 37.4801 53.5416 36.6363C54.2863 36.3392 54.8831 35.7405 55.0904 34.966C57.105 27.4403 52.8292 19.4073 45.0875 16.6075Z" fill="white"/>
<path d="M45.0874 16.6074C52.8291 19.4072 57.1058 27.4407 55.0912 34.9665C54.8839 35.7407 54.2867 36.339 53.5422 36.6361L53.1427 36.774C51.2653 37.3268 49.2391 36.5938 48.1494 34.9682L47.9305 34.6066L47.3287 33.4994L47.1031 33.589L46.8531 33.6815C44.2618 34.5776 41.3803 33.4747 40.0603 31.042L39.9443 30.8289L39.7187 30.9185C37.1482 31.944 34.229 30.9489 32.8103 28.603L32.6773 28.372L32.5612 28.1588L31.3904 28.625L30.9908 28.7629C29.1134 29.3157 27.0872 28.5827 25.9976 26.9571L25.7786 26.5955C25.444 25.9788 25.3442 25.2574 25.5497 24.5989L25.6559 24.3213C28.921 17.248 37.3458 13.8079 45.0874 16.6074ZM44.6083 17.9324C37.5188 15.3688 29.8779 18.5362 26.935 24.9112C26.8118 25.178 26.814 25.5508 27.0165 25.9239C27.7617 27.2972 29.4172 27.8959 30.8685 27.3169L32.0385 26.849C32.7018 26.5843 33.4588 26.8582 33.7995 27.4859L33.9151 27.7003C34.937 29.5835 37.2068 30.4043 39.1969 29.6104L39.4229 29.5195C40.0862 29.255 40.8433 29.5287 41.1839 30.1564L41.2995 30.3708C42.3215 32.2538 44.5913 33.0749 46.5812 32.281L46.8073 32.1901L46.9324 32.1475C47.5632 31.9619 48.2475 32.2383 48.567 32.8265L49.1683 33.935C49.9135 35.3083 51.5691 35.9071 53.0203 35.328C53.4144 35.1707 53.6534 34.8851 53.7294 34.6013C55.5449 27.8185 51.6977 20.4963 44.6083 17.9324Z" fill="#2099FD"/>
<path d="M44.336 17.5888C39.1192 17.9184 34.2179 21.5226 32.2083 27.0794C32.1941 27.1187 32.1821 27.1588 32.1683 27.1981C31.7799 27.5235 30.6671 27.7486 29.6049 27.8937C28.2685 28.076 27.0405 27.2096 26.6464 25.9196C26.531 25.5414 26.5376 25.134 26.6894 24.769C29.3613 18.3455 36.8927 14.8809 43.7395 17.357C43.9412 17.4299 44.1398 17.5078 44.336 17.5888Z" fill="#70BEFF"/>
<path d="M44.2697 17.5518C45.0378 17.8352 45.7805 18.1511 46.497 18.4933C47.7864 21.2347 48.2946 26.2824 47.759 32.1297L47.3709 32.3127C44.8317 33.5026 41.8043 32.6445 40.2667 30.2995L39.7843 29.5661C41.8697 25.1619 43.3993 21.0069 44.2697 17.5518Z" fill="#70BEFF"/>
<path d="M50.9726 55.5684C51.3598 55.5684 51.6737 55.8287 51.6737 56.1497C51.6737 56.4708 51.3598 56.7311 50.9726 56.7311L4.70108 56.7311C4.31389 56.7311 4 56.4708 4 56.1497C4 55.8287 4.31389 55.5684 4.70108 55.5684L50.9726 55.5684Z" fill="#00BB86"/>
<path d="M30.1623 43.9404C19.5663 43.9404 10.9766 49.6669 10.9766 56.7309H49.348C49.348 49.6669 40.7583 43.9404 30.1623 43.9404Z" fill="#99ECC6"/>
<path d="M30.1623 43.9404C40.7583 43.9404 49.348 49.6669 49.348 56.7309H10.9766C10.9766 49.6669 19.5663 43.9404 30.1623 43.9404ZM30.1623 45.3616C25.1059 45.3616 20.5922 46.7302 17.3843 48.8687C14.6947 50.6618 13.0216 52.9188 12.5435 55.3098H47.7812C47.303 52.9188 45.6299 50.6618 42.9403 48.8687C39.7324 46.7302 35.2187 45.3616 30.1623 45.3616Z" fill="#00BB86"/>
</svg>
