<svg width="32" height="32" viewBox="0 0 32 32" fill="none" xmlns="http://www.w3.org/2000/svg">
<path d="M11.0068 13.5293C11.0068 14.91 10.1114 16.0293 9.00684 16.0293C7.90227 16.0293 7.00684 14.91 7.00684 13.5293C7.00684 12.1486 7.90227 11.0293 9.00684 11.0293C10.1114 11.0293 11.0068 12.1486 11.0068 13.5293Z" fill="#DEFFF0"/>
<path d="M10.4354 13.5293C10.4354 12.5431 9.79581 11.7436 9.00684 11.7436C8.21786 11.7436 7.57826 12.5431 7.57826 13.5293C7.57826 14.5155 8.21786 15.315 9.00684 15.315V16.0293C7.90227 16.0293 7.00684 14.91 7.00684 13.5293C7.00684 12.1486 7.90227 11.0293 9.00684 11.0293C10.1114 11.0293 11.0068 12.1486 11.0068 13.5293C11.0068 14.91 10.1114 16.0293 9.00684 16.0293V15.315C9.79581 15.315 10.4354 14.5155 10.4354 13.5293Z" fill="#00A797"/>
<path d="M22.2762 6.59718C22.4715 6.05702 23.0678 5.7775 23.6079 5.97284C24.1481 6.16819 24.4276 6.76443 24.2323 7.30458L18.9248 21.9804L16.9687 21.273L22.2762 6.59718Z" fill="white"/>
<path d="M23.6208 7.08313C23.6938 6.88083 23.5887 6.65751 23.3864 6.58436C23.1843 6.51141 22.9612 6.616 22.8879 6.81809L17.8016 20.8824L18.5345 21.1474L23.6208 7.08313ZM18.9249 21.9802L16.9688 21.2728L22.2763 6.5969C22.4717 6.05702 23.0677 5.77763 23.6076 5.97274C24.1477 6.16805 24.4275 6.76424 24.2324 7.30432L18.9249 21.9802Z" fill="#00A797"/>
<path d="M23.06 7.48751C19.4863 6.19512 15.5973 7.78298 14.0901 11.0482C13.935 11.3842 13.9699 11.7728 14.1465 12.0981C14.6477 13.0219 15.7609 13.4245 16.737 13.035L17.2775 12.8194L17.331 12.918C17.96 14.0772 19.3568 14.5824 20.5817 14.0936L20.686 14.052L20.7395 14.1507C21.3685 15.3099 22.7653 15.815 23.9902 15.3263L24.0945 15.2847L24.372 15.7962C24.8732 16.7199 25.9864 17.1225 26.9625 16.733C27.3063 16.5959 27.5817 16.3195 27.6775 15.962C28.6074 12.488 26.6336 8.77991 23.06 7.48751Z" fill="white"/>
<path d="M23.0596 7.48799C26.6332 8.78039 28.6074 12.4888 27.6775 15.9627C27.5817 16.3201 27.3061 16.5963 26.9624 16.7334L26.778 16.7971C25.9114 17.0523 24.976 16.7139 24.473 15.9635L24.372 15.7966L24.0942 15.2855L23.9901 15.3269L23.8747 15.3696C22.6785 15.7832 21.3484 15.2741 20.739 14.1512L20.6855 14.0528L20.5814 14.0941C19.3948 14.5675 18.0472 14.1082 17.3923 13.0253L17.3309 12.9186L17.2774 12.8202L16.7369 13.0354L16.5524 13.0991C15.6858 13.3542 14.7505 13.0159 14.2475 12.2655L14.1465 12.0986C13.992 11.8139 13.9459 11.4809 14.0408 11.1769L14.0898 11.0488C15.597 7.78367 19.486 6.19572 23.0596 7.48799ZM22.8384 8.09961C19.5659 6.91621 16.0387 8.37834 14.6802 11.3211C14.6234 11.4443 14.6244 11.6163 14.7179 11.7886C15.0618 12.4225 15.8261 12.6989 16.496 12.4316L17.0361 12.2156C17.3423 12.0934 17.6917 12.2199 17.849 12.5096L17.9023 12.6086C18.3741 13.4779 19.4218 13.8568 20.3404 13.4903L20.4448 13.4484C20.751 13.3262 21.1005 13.4526 21.2577 13.7423L21.311 13.8413C21.7828 14.7105 22.8306 15.0896 23.7492 14.7231L23.8535 14.6811L23.9112 14.6615C24.2024 14.5758 24.5183 14.7033 24.6658 14.9749L24.9434 15.4866C25.2874 16.1205 26.0516 16.3969 26.7215 16.1296C26.9034 16.057 27.0138 15.9252 27.0488 15.7941C27.8869 12.6631 26.111 9.28313 22.8384 8.09961Z" fill="#0086F4"/>
<path d="M22.7133 7.94059C20.3053 8.09278 18.0427 9.75648 17.1151 12.3215C17.1086 12.3394 17.1032 12.3577 17.0968 12.3757C16.9179 12.526 16.4046 12.6306 15.914 12.6976C15.2969 12.7819 14.7302 12.3818 14.5483 11.7863C14.4949 11.6117 14.4974 11.4235 14.5675 11.255C15.8009 8.28986 19.2775 6.69062 22.438 7.83358C22.5311 7.86724 22.6228 7.9032 22.7133 7.94059Z" fill="#59B4FF"/>
<path d="M22.682 7.9233C23.0365 8.05412 23.3794 8.19999 23.7101 8.35793C24.3052 9.6233 24.54 11.9531 24.2929 14.652L24.1129 14.7369C22.9407 15.2861 21.5433 14.8901 20.8336 13.8076L20.6111 13.4684C21.5736 11.4356 22.2802 9.51806 22.682 7.9233Z" fill="#59B4FF"/>
<path d="M16.0068 20.0293C11.0363 20.0293 7.00684 22.7156 7.00684 26.0293H25.0068C25.0068 22.7156 20.9774 20.0293 16.0068 20.0293Z" fill="#76E3C1"/>
<path d="M16.0068 20.0293C20.9774 20.0293 25.0068 22.7156 25.0068 26.0293H7.00684C7.00684 22.7156 11.0363 20.0293 16.0068 20.0293ZM16.0068 20.696C13.6349 20.696 11.5175 21.338 10.0127 22.3411C8.75101 23.1823 7.96618 24.241 7.74186 25.3626H24.2718C24.0475 24.241 23.2627 23.1823 22.001 22.3411C20.4962 21.338 18.3788 20.696 16.0068 20.696Z" fill="#19B38D"/>
<path d="M25.6833 25.0293C25.862 25.0293 26.0068 25.2532 26.0068 25.5293C26.0068 25.8054 25.862 26.0293 25.6833 26.0293L4.33037 26.0293C4.15169 26.0293 4.00684 25.8054 4.00684 25.5293C4.00684 25.2532 4.15168 25.0293 4.33037 25.0293L25.6833 25.0293Z" fill="#00A797"/>
</svg>
