<svg width="45" height="45" viewBox="0 0 45 45" fill="none" xmlns="http://www.w3.org/2000/svg">
<circle cx="10.5" cy="18.5" r="3" fill="#DEFFF0" stroke="#00A797"/>
<path d="M33.0159 7.26094C33.5866 7.46733 33.8825 8.09734 33.6763 8.66806L25.6859 30.7627L23.6187 30.0151L31.6091 7.92046C31.8157 7.35006 32.4453 7.05486 33.0159 7.26094Z" fill="white" stroke="#00A797"/>
<mask id="path-3-inside-1_16765_49749" fill="white">
<path d="M32.3438 9.11968C26.8491 7.13256 20.8696 9.57396 18.5521 14.5943C18.3136 15.111 18.3674 15.7085 18.6388 16.2087C19.4095 17.629 21.121 18.248 22.6219 17.6492L23.4528 17.3176L23.5352 17.4693C24.5022 19.2516 26.6499 20.0283 28.5333 19.2769L28.6936 19.2129L28.7759 19.3646C29.7429 21.1469 31.8906 21.9236 33.774 21.1722L33.9343 21.1082L34.361 21.8946C35.1316 23.3149 36.8432 23.9339 38.344 23.335C38.8726 23.1242 39.2961 22.6992 39.4433 22.1495C40.8731 16.8082 37.8384 11.1068 32.3438 9.11968Z"/>
</mask>
<path d="M32.3438 9.11968C26.8491 7.13256 20.8696 9.57396 18.5521 14.5943C18.3136 15.111 18.3674 15.7085 18.6388 16.2087C19.4095 17.629 21.121 18.248 22.6219 17.6492L23.4528 17.3176L23.5352 17.4693C24.5022 19.2516 26.6499 20.0283 28.5333 19.2769L28.6936 19.2129L28.7759 19.3646C29.7429 21.1469 31.8906 21.9236 33.774 21.1722L33.9343 21.1082L34.361 21.8946C35.1316 23.3149 36.8432 23.9339 38.344 23.335C38.8726 23.1242 39.2961 22.6992 39.4433 22.1495C40.8731 16.8082 37.8384 11.1068 32.3438 9.11968Z" fill="white"/>
<path d="M18.5521 14.5943L17.6442 14.1752L18.5521 14.5943ZM39.4433 22.1495L38.4773 21.8909L38.4773 21.8909L39.4433 22.1495ZM23.4528 17.3176L24.3318 16.8407C24.09 16.3952 23.5531 16.201 23.0823 16.3888L23.4528 17.3176ZM22.6219 17.6492L22.9925 18.578L22.6219 17.6492ZM28.6936 19.2129L29.5725 18.736C29.3308 18.2904 28.7938 18.0963 28.323 18.2841L28.6936 19.2129ZM28.5333 19.2769L28.9038 20.2057L28.9038 20.2057L28.5333 19.2769ZM23.5352 17.4693L24.4141 16.9924L24.4141 16.9924L23.5352 17.4693ZM33.9343 21.1082L34.8132 20.6313C34.5715 20.1857 34.0346 19.9916 33.5637 20.1794L33.9343 21.1082ZM33.774 21.1722L33.4034 20.2434L33.4034 20.2434L33.774 21.1722ZM28.7759 19.3646L29.6548 18.8877L29.6548 18.8877L28.7759 19.3646ZM34.361 21.8946L33.482 22.3715L34.361 21.8946ZM38.344 23.335L37.9735 22.4062L38.344 23.335ZM18.6388 16.2087L17.7599 16.6856L17.7599 16.6856L18.6388 16.2087ZM18.5521 14.5943L19.4601 15.0134C21.5487 10.4886 26.9718 8.24033 32.0037 10.0601L32.3438 9.11968L32.6838 8.17928C26.7264 6.02479 20.1904 8.65929 17.6442 14.1752L18.5521 14.5943ZM32.3438 9.11968L32.0037 10.0601C37.0355 11.8798 39.766 17.0768 38.4773 21.8909L39.4433 22.1495L40.4093 22.4081C41.9803 16.5395 38.6413 10.3338 32.6838 8.17928L32.3438 9.11968ZM23.4528 17.3176L23.0823 16.3888L22.2513 16.7204L22.6219 17.6492L22.9925 18.578L23.8234 18.2464L23.4528 17.3176ZM28.6936 19.2129L28.323 18.2841L28.1627 18.3481L28.5333 19.2769L28.9038 20.2057L29.0641 20.1417L28.6936 19.2129ZM23.5352 17.4693L24.4141 16.9924L24.3318 16.8407L23.4528 17.3176L22.5739 17.7946L22.6562 17.9463L23.5352 17.4693ZM33.9343 21.1082L33.5637 20.1794L33.4034 20.2434L33.774 21.1722L34.1446 22.101L34.3049 22.037L33.9343 21.1082ZM28.7759 19.3646L29.6548 18.8877L29.5725 18.736L28.6936 19.2129L27.8146 19.6898L27.8969 19.8415L28.7759 19.3646ZM34.361 21.8946L35.2399 21.4177L34.8132 20.6313L33.9343 21.1082L33.0553 21.5851L33.482 22.3715L34.361 21.8946ZM38.344 23.335L37.9735 22.4062C36.9434 22.8172 35.7688 22.3924 35.2399 21.4177L34.361 21.8946L33.482 22.3715C34.4945 24.2374 36.7429 25.0505 38.7146 24.2638L38.344 23.335ZM33.774 21.1722L33.4034 20.2434C31.9909 20.8069 30.3801 20.2244 29.6548 18.8877L28.7759 19.3646L27.8969 19.8415C29.1058 22.0694 31.7904 23.0403 34.1446 22.101L33.774 21.1722ZM28.5333 19.2769L28.1627 18.3481C26.7502 18.9117 25.1394 18.3291 24.4141 16.9924L23.5352 17.4693L22.6562 17.9463C23.865 20.1741 26.5496 21.145 28.9038 20.2057L28.5333 19.2769ZM22.6219 17.6492L22.2513 16.7204C21.2213 17.1313 20.0467 16.7066 19.5178 15.7318L18.6388 16.2087L17.7599 16.6856C18.7723 18.5515 21.0207 19.3647 22.9925 18.578L22.6219 17.6492ZM18.5521 14.5943L17.6442 14.1752C17.2546 15.0192 17.3607 15.9501 17.7599 16.6856L18.6388 16.2087L19.5178 15.7318C19.3741 15.467 19.3726 15.2028 19.4601 15.0134L18.5521 14.5943ZM39.4433 22.1495L38.4773 21.8909C38.4234 22.0924 38.2533 22.2946 37.9735 22.4062L38.344 23.335L38.7146 24.2638C39.4919 23.9537 40.1689 23.306 40.4093 22.4081L39.4433 22.1495Z" fill="#0086F4" mask="url(#path-3-inside-1_16765_49749)"/>
<path d="M31.8097 9.81625C28.1072 10.0503 24.6283 12.6083 23.2021 16.5521C23.1921 16.5797 23.1837 16.6078 23.174 16.6354C22.8989 16.8666 22.1096 17.0274 21.3553 17.1304C20.4066 17.26 19.5353 16.6449 19.2555 15.7292C19.1735 15.4608 19.1773 15.1715 19.2851 14.9123C21.1814 10.3533 26.5268 7.89437 31.3863 9.65172C31.5294 9.70348 31.6704 9.75876 31.8097 9.81625Z" fill="#59B4FF"/>
<path d="M31.7629 9.79003C32.308 9.99117 32.8352 10.2155 33.3437 10.4583C34.2588 12.4039 34.6198 15.986 34.2397 20.1358L33.963 20.2662C32.1608 21.1107 30.0121 20.5019 28.9209 18.8374L28.5788 18.3159C30.0587 15.1904 31.1452 12.2421 31.7629 9.79003Z" fill="#59B4FF"/>
<path d="M21.5703 29.2178C25.2132 29.2178 28.4887 30.2028 30.8389 31.7695C33.0184 33.2226 34.3602 35.1422 34.5469 37.2178H8.59375C8.78043 35.1422 10.1222 33.2226 12.3018 31.7695C14.6519 30.2028 17.9274 29.2178 21.5703 29.2178Z" fill="#76E3C1" stroke="#19B38D"/>
<line x1="3.57031" y1="37.2178" x2="36.5703" y2="37.2178" stroke="#00A797" stroke-linecap="round"/>
</svg>
