<svg width="45" height="45" viewBox="0 0 45 45" fill="none" xmlns="http://www.w3.org/2000/svg">
<path d="M24.5469 16.5186C26.1723 16.5186 27.5434 17.6256 28.1914 19.1162C29.336 21.749 31.5611 24.8304 36.7334 27.5107C37.7848 28.0558 38.2917 29.3099 37.8252 30.3984C37.3835 31.429 36.2379 31.9198 35.2324 31.4238C32.16 29.9076 26.7559 26.6656 26.7559 24.0996V30.0557C26.7559 32.0329 28.0193 36.1763 29.5576 36.5537H14.207C15.7453 36.176 17.0088 32.0329 17.0088 30.0557V24.0996C17.0088 26.6656 11.6046 29.9076 8.53223 31.4238C7.52666 31.92 6.38019 31.4291 5.93848 30.3984C5.4721 29.3098 5.97978 28.0557 7.03125 27.5107C12.2034 24.8304 14.4276 21.749 15.5723 19.1162C16.2203 17.6256 17.5924 16.5186 19.2178 16.5186H24.5469Z" fill="#DEFFF0"/>
<path d="M28.1914 19.1162L27.7329 19.3155L27.7329 19.3156L28.1914 19.1162ZM36.7334 27.5107L36.9635 27.0669L36.9635 27.0668L36.7334 27.5107ZM37.8252 30.3984L38.2848 30.5954V30.5954L37.8252 30.3984ZM35.2324 31.4238L35.0112 31.8722L35.0112 31.8722L35.2324 31.4238ZM27.2559 24.0996C27.2559 23.8235 27.032 23.5996 26.7559 23.5996C26.4797 23.5996 26.2559 23.8235 26.2559 24.0996H26.7559H27.2559ZM29.5576 36.5537V37.0537C29.8106 37.0537 30.0236 36.8648 30.054 36.6137C30.0844 36.3626 29.9224 36.1284 29.6768 36.0681L29.5576 36.5537ZM14.207 36.5537L14.0878 36.0681C13.8422 36.1284 13.6803 36.3627 13.7106 36.6138C13.741 36.8648 13.9541 37.0537 14.207 37.0537V36.5537ZM17.5088 24.0996C17.5088 23.8235 17.2849 23.5996 17.0088 23.5996C16.7326 23.5996 16.5088 23.8235 16.5088 24.0996H17.0088H17.5088ZM8.53223 31.4238L8.75346 31.8722L8.7535 31.8722L8.53223 31.4238ZM5.93848 30.3984L5.47888 30.5953L5.4789 30.5954L5.93848 30.3984ZM7.03125 27.5107L6.8012 27.0668L6.80116 27.0668L7.03125 27.5107ZM15.5723 19.1162L16.0308 19.3156L16.0308 19.3155L15.5723 19.1162ZM24.5469 16.5186V17.0186C25.9306 17.0186 27.1457 17.9649 27.7329 19.3155L28.1914 19.1162L28.65 18.9169C27.9411 17.2862 26.4139 16.0186 24.5469 16.0186V16.5186ZM28.1914 19.1162L27.7329 19.3156C28.9239 22.0551 31.2304 25.2221 36.5033 27.9547L36.7334 27.5107L36.9635 27.0668C31.8918 24.4386 29.7481 21.4429 28.65 18.9169L28.1914 19.1162ZM36.7334 27.5107L36.5033 27.9546C37.3423 28.3896 37.7203 29.3739 37.3656 30.2015L37.8252 30.3984L38.2848 30.5954C38.8632 29.2458 38.2273 27.7221 36.9635 27.0669L36.7334 27.5107ZM37.8252 30.3984L37.3656 30.2015C37.0247 30.997 36.1751 31.3313 35.4536 30.9754L35.2324 31.4238L35.0112 31.8722C36.3007 32.5083 37.7424 31.861 38.2848 30.5954L37.8252 30.3984ZM35.2324 31.4238L35.4537 30.9755C33.9338 30.2254 31.8454 29.052 30.1448 27.7575C29.2937 27.1096 28.557 26.4443 28.0376 25.7997C27.5103 25.1451 27.2559 24.5722 27.2559 24.0996H26.7559H26.2559C26.2559 24.91 26.6769 25.7046 27.2589 26.427C27.8488 27.1593 28.6552 27.8804 29.5391 28.5532C31.3088 29.9003 33.4586 31.106 35.0112 31.8722L35.2324 31.4238ZM26.7559 24.0996H26.2559V30.0557H26.7559H27.2559V24.0996H26.7559ZM26.7559 30.0557H26.2559C26.2559 31.1219 26.5897 32.7138 27.1128 34.0831C27.3756 34.7709 27.6954 35.4278 28.0629 35.9463C28.419 36.4488 28.8758 36.9013 29.4385 37.0393L29.5576 36.5537L29.6768 36.0681C29.4702 36.0174 29.1923 35.8105 28.8788 35.3681C28.5767 34.9418 28.2923 34.3685 28.0469 33.7262C27.5537 32.4351 27.2559 30.9667 27.2559 30.0557H26.7559ZM29.5576 36.5537V36.0537H14.207V36.5537V37.0537H29.5576V36.5537ZM14.207 36.5537L14.3263 37.0393C14.8888 36.9012 15.3457 36.4487 15.7017 35.9462C16.0692 35.4276 16.3891 34.7708 16.6518 34.0829C17.1749 32.7137 17.5088 31.1219 17.5088 30.0557H17.0088H16.5088C16.5088 30.9667 16.2109 32.435 15.7177 33.7261C15.4723 34.3684 15.1879 34.9417 14.8858 35.368C14.5723 35.8104 14.2944 36.0174 14.0878 36.0681L14.207 36.5537ZM17.0088 30.0557H17.5088V24.0996H17.0088H16.5088V30.0557H17.0088ZM17.0088 24.0996H16.5088C16.5088 24.5722 16.2543 25.1451 15.727 25.7997C15.2077 26.4443 14.471 27.1096 13.6198 27.7575C11.9193 29.052 9.83081 30.2254 8.31096 30.9755L8.53223 31.4238L8.7535 31.8722C10.3061 31.106 12.4559 29.9003 14.2255 28.5532C15.1094 27.8804 15.9158 27.1593 16.5057 26.427C17.0877 25.7046 17.5088 24.91 17.5088 24.0996H17.0088ZM8.53223 31.4238L8.311 30.9754C7.58933 31.3315 6.739 30.997 6.39805 30.2015L5.93848 30.3984L5.4789 30.5954C6.02138 31.8612 7.464 32.5084 8.75346 31.8722L8.53223 31.4238ZM5.93848 30.3984L6.39807 30.2015C6.04361 29.3742 6.42208 28.3897 7.26134 27.9547L7.03125 27.5107L6.80116 27.0668C5.53748 27.7218 4.90058 29.2455 5.47888 30.5953L5.93848 30.3984ZM7.03125 27.5107L7.2613 27.9547C12.5341 25.2222 14.8398 22.055 16.0308 19.3156L15.5723 19.1162L15.1137 18.9169C14.0155 21.4429 11.8726 24.4387 6.8012 27.0668L7.03125 27.5107ZM15.5723 19.1162L16.0308 19.3155C16.6179 17.9651 17.8339 17.0186 19.2178 17.0186V16.5186V16.0186C17.3508 16.0186 15.8227 17.286 15.1137 18.9169L15.5723 19.1162ZM19.2178 16.5186V17.0186H24.5469V16.5186V16.0186H19.2178V16.5186Z" fill="#00A797"/>
<path d="M24.4316 16.5186C26.0565 16.5191 27.4283 17.6259 28.0762 19.1162C28.7062 20.5652 29.6642 22.1493 31.2598 23.7285L28.8271 27.4258C27.5462 26.3134 26.6396 25.1502 26.6396 24.0996V30.0557C26.6396 31.8932 27.7312 34.0425 29.1201 34.3877H14.4131C15.8016 34.0418 16.8936 31.8928 16.8936 30.0557V24.0996C16.8936 25.153 15.9816 26.3195 14.6953 27.4346L12.2627 23.7383C13.8643 22.1558 14.8258 20.5683 15.457 19.1162C16.1051 17.6258 17.4764 16.5187 19.1016 16.5186H24.4316Z" fill="white"/>
<path d="M24.4316 16.5186L24.4318 16.0186H24.4316V16.5186ZM28.0762 19.1162L27.6176 19.3155L27.6176 19.3156L28.0762 19.1162ZM31.2598 23.7285L31.6775 24.0033C31.8084 23.8044 31.7808 23.5407 31.6115 23.3731L31.2598 23.7285ZM28.8271 27.4258L28.4993 27.8033C28.6082 27.8978 28.7525 27.9408 28.8954 27.9211C29.0382 27.9014 29.1656 27.8211 29.2448 27.7006L28.8271 27.4258ZM27.1396 24.0996C27.1396 23.8235 26.9158 23.5996 26.6396 23.5996C26.3635 23.5996 26.1396 23.8235 26.1396 24.0996H26.6396H27.1396ZM29.1201 34.3877V34.8877C29.3728 34.8877 29.5857 34.6992 29.6164 34.4484C29.6471 34.1977 29.4859 33.9634 29.2407 33.9025L29.1201 34.3877ZM14.4131 34.3877L14.2922 33.9025C14.0471 33.9636 13.886 34.1979 13.9168 34.4486C13.9476 34.6993 14.1605 34.8877 14.4131 34.8877V34.3877ZM17.3936 24.0996C17.3936 23.8235 17.1697 23.5996 16.8936 23.5996C16.6174 23.5996 16.3936 23.8235 16.3936 24.0996H16.8936H17.3936ZM14.6953 27.4346L14.2776 27.7094C14.3569 27.8298 14.4842 27.9102 14.6269 27.9299C14.7696 27.9496 14.9139 27.9068 15.0228 27.8124L14.6953 27.4346ZM12.2627 23.7383L11.9113 23.3826C11.7417 23.5501 11.714 23.8141 11.845 24.0132L12.2627 23.7383ZM15.457 19.1162L14.9985 18.9168L14.9985 18.9169L15.457 19.1162ZM19.1016 16.5186V16.0186H19.1015L19.1016 16.5186ZM24.4316 16.5186L24.4315 17.0186C25.815 17.019 27.0307 17.9655 27.6176 19.3155L28.0762 19.1162L28.5347 18.9169C27.8259 17.2864 26.2981 16.0192 24.4318 16.0186L24.4316 16.5186ZM28.0762 19.1162L27.6176 19.3156C28.2699 20.8158 29.262 22.4548 30.908 24.0839L31.2598 23.7285L31.6115 23.3731C30.0663 21.8438 29.1424 20.3147 28.5347 18.9169L28.0762 19.1162ZM31.2598 23.7285L30.8421 23.4537L28.4095 27.151L28.8271 27.4258L29.2448 27.7006L31.6775 24.0033L31.2598 23.7285ZM28.8271 27.4258L29.155 27.0483C28.5323 26.5075 28.019 25.9697 27.6648 25.4558C27.3075 24.9375 27.1396 24.4835 27.1396 24.0996H26.6396H26.1396C26.1396 24.7663 26.4251 25.4192 26.8414 26.0233C27.2607 26.6316 27.8411 27.2317 28.4993 27.8033L28.8271 27.4258ZM26.6396 24.0996H26.1396V30.0557H26.6396H27.1396V24.0996H26.6396ZM26.6396 30.0557H26.1396C26.1396 31.0647 26.4368 32.1439 26.9211 33.0226C27.3969 33.8859 28.109 34.6516 28.9995 34.8729L29.1201 34.3877L29.2407 33.9025C28.7423 33.7786 28.2142 33.297 27.7969 32.54C27.3883 31.7984 27.1396 30.8841 27.1396 30.0557H26.6396ZM29.1201 34.3877V33.8877H14.4131V34.3877V34.8877H29.1201V34.3877ZM14.4131 34.3877L14.5339 34.8729C15.424 34.6511 16.136 33.8855 16.6119 33.0223C17.0962 32.1436 17.3936 31.0645 17.3936 30.0557H16.8936H16.3936C16.3936 30.8839 16.1449 31.798 15.7361 32.5395C15.3188 33.2965 14.7906 33.7784 14.2922 33.9025L14.4131 34.3877ZM16.8936 30.0557H17.3936V24.0996H16.8936H16.3936V30.0557H16.8936ZM16.8936 24.0996H16.3936C16.3936 24.4844 16.2247 24.9398 15.8654 25.4597C15.5092 25.9753 14.9933 26.5146 14.3678 27.0568L14.6953 27.4346L15.0228 27.8124C15.6837 27.2395 16.2668 26.638 16.6882 26.0282C17.1065 25.4227 17.3936 24.7681 17.3936 24.0996H16.8936ZM14.6953 27.4346L15.113 27.1597L12.6804 23.4634L12.2627 23.7383L11.845 24.0132L14.2776 27.7094L14.6953 27.4346ZM12.2627 23.7383L12.6141 24.094C14.2663 22.4616 15.2619 20.8191 15.9156 19.3156L15.457 19.1162L14.9985 18.9169C14.3896 20.3175 13.4624 21.85 11.9113 23.3826L12.2627 23.7383ZM15.457 19.1162L15.9156 19.3156C16.5027 17.9652 17.7181 17.0187 19.1016 17.0186L19.1016 16.5186L19.1015 16.0186C17.2348 16.0187 15.7074 17.2865 14.9985 18.9168L15.457 19.1162ZM19.1016 16.5186V17.0186H24.4316V16.5186V16.0186H19.1016V16.5186Z" fill="#00BB86"/>
<path d="M26.877 30.0557C26.877 32.0309 28.0543 36.2014 29.6523 36.5918L20.8896 36.5537H13.3457C15.0148 36.1758 16.5889 32.0328 16.5889 30.0557V29.5146H26.8535L26.877 30.0557Z" fill="#59B4FF"/>
<path d="M26.877 30.0557H27.377V30.0448L27.3765 30.034L26.877 30.0557ZM29.6523 36.5918L29.6502 37.0918L29.771 36.1061L29.6523 36.5918ZM20.8896 36.5537L20.8918 36.0537H20.8896V36.5537ZM13.3457 36.5537L13.2353 36.0661L13.3457 37.0537V36.5537ZM16.5889 29.5146V29.0146H16.0889V29.5146H16.5889ZM26.8535 29.5146L27.353 29.493L27.3323 29.0146H26.8535V29.5146ZM26.877 30.0557H26.377C26.377 31.1158 26.687 32.7117 27.1963 34.0912C27.4519 34.7836 27.7667 35.4466 28.1354 35.9711C28.4944 36.4817 28.9572 36.9367 29.5337 37.0775L29.6523 36.5918L29.771 36.1061C29.5484 36.0517 29.2649 35.8389 28.9536 35.3961C28.6521 34.9672 28.3729 34.3908 28.1344 33.7449C27.6556 32.4478 27.377 30.9708 27.377 30.0557H26.877ZM29.6523 36.5918L29.6545 36.0918L20.8918 36.0537L20.8896 36.5537L20.8875 37.0537L29.6502 37.0918L29.6523 36.5918ZM20.8896 36.5537V36.0537H13.3457V36.5537V37.0537H20.8896V36.5537ZM13.3457 36.5537L13.4561 37.0414C14.0372 36.9098 14.5378 36.475 14.9453 35.9715C15.3628 35.4555 15.7366 34.7999 16.0487 34.1106C16.6678 32.743 17.0889 31.1402 17.0889 30.0557H16.5889H16.0889C16.0889 30.9483 15.7229 32.4055 15.1377 33.6982C14.8476 34.339 14.5149 34.9136 14.1679 35.3425C13.8108 35.7838 13.4888 36.0087 13.2353 36.0661L13.3457 36.5537ZM16.5889 30.0557H17.0889V29.5146H16.5889H16.0889V30.0557H16.5889ZM16.5889 29.5146V30.0146H26.8535V29.5146V29.0146H16.5889V29.5146ZM26.8535 29.5146L26.354 29.5363L26.3774 30.0773L26.877 30.0557L27.3765 30.034L27.353 29.493L26.8535 29.5146Z" fill="#1F8EEA"/>
<rect x="18.1777" y="5.10547" width="7.664" height="9.83" rx="3.832" fill="#DEFFF0" stroke="#00A797"/>
<mask id="path-8-inside-1_16765_49673" fill="white">
<path d="M22.0098 4.60547C24.4023 4.60548 26.3418 6.54501 26.3418 8.9375V9.36328C26.3418 9.54591 26.3286 9.72566 26.3066 9.90234C25.3182 10.1096 24.1734 10.051 23.0693 9.6748C22.5966 9.51368 22.1671 9.30574 21.7881 9.06445C21.4089 9.30585 20.9789 9.51365 20.5059 9.6748C19.5666 9.99474 18.5983 10.0843 17.7217 9.97656C17.6933 9.77618 17.6777 9.57151 17.6777 9.36328V8.9375C17.6777 6.545 19.6173 4.60547 22.0098 4.60547Z"/>
</mask>
<path d="M22.0098 4.60547C24.4023 4.60548 26.3418 6.54501 26.3418 8.9375V9.36328C26.3418 9.54591 26.3286 9.72566 26.3066 9.90234C25.3182 10.1096 24.1734 10.051 23.0693 9.6748C22.5966 9.51368 22.1671 9.30574 21.7881 9.06445C21.4089 9.30585 20.9789 9.51365 20.5059 9.6748C19.5666 9.99474 18.5983 10.0843 17.7217 9.97656C17.6933 9.77618 17.6777 9.57151 17.6777 9.36328V8.9375C17.6777 6.545 19.6173 4.60547 22.0098 4.60547Z" fill="#49CF92"/>
<path d="M22.0098 4.60547L22.0098 3.60547H22.0098V4.60547ZM26.3418 9.36328L27.3418 9.36331V9.36328H26.3418ZM26.3066 9.90234L26.5118 10.8811L27.211 10.7345L27.299 10.0256L26.3066 9.90234ZM23.0693 9.6748L22.7467 10.6213L22.7468 10.6214L23.0693 9.6748ZM21.7881 9.06445L22.3251 8.22087L21.7881 7.87902L21.2511 8.22088L21.7881 9.06445ZM20.5059 9.6748L20.8283 10.6214L20.8284 10.6214L20.5059 9.6748ZM17.7217 9.97656L16.7316 10.1169L16.8391 10.8756L17.5997 10.9691L17.7217 9.97656ZM17.6777 9.36328H16.6777V9.36331L17.6777 9.36328ZM22.0098 4.60547L22.0098 5.60547C23.85 5.60548 25.3418 7.0973 25.3418 8.9375H26.3418H27.3418C27.3418 5.99272 24.9545 3.60549 22.0098 3.60547L22.0098 4.60547ZM26.3418 8.9375H25.3418V9.36328H26.3418H27.3418V8.9375H26.3418ZM26.3418 9.36328L25.3418 9.36325C25.3418 9.49781 25.3321 9.63584 25.3143 9.77908L26.3066 9.90234L27.299 10.0256C27.3251 9.81548 27.3418 9.594 27.3418 9.36331L26.3418 9.36328ZM26.3066 9.90234L26.1014 8.92363C25.2944 9.09283 24.3318 9.04848 23.3918 8.72824L23.0693 9.6748L22.7468 10.6214C24.0149 11.0534 25.3419 11.1264 26.5118 10.8811L26.3066 9.90234ZM23.0693 9.6748L23.3919 8.72827C22.9926 8.59215 22.6353 8.41836 22.3251 8.22087L21.7881 9.06445L21.2511 9.90803C21.6989 10.1931 22.2006 10.4352 22.7467 10.6213L23.0693 9.6748ZM21.7881 9.06445L21.2511 8.22088C20.9411 8.41819 20.5834 8.59193 20.1834 8.72824L20.5059 9.6748L20.8284 10.6214C21.3743 10.4354 21.8766 10.1935 22.3251 9.90803L21.7881 9.06445ZM20.5059 9.6748L20.1834 8.72822C19.3858 8.99991 18.5694 9.07323 17.8437 8.98403L17.7217 9.97656L17.5997 10.9691C18.6273 11.0954 19.7475 10.9896 20.8283 10.6214L20.5059 9.6748ZM17.7217 9.97656L18.7118 9.8362C18.6896 9.67941 18.6777 9.52169 18.6777 9.36325L17.6777 9.36328L16.6777 9.36331C16.6777 9.62133 16.697 9.87296 16.7316 10.1169L17.7217 9.97656ZM17.6777 9.36328H18.6777V8.9375H17.6777H16.6777V9.36328H17.6777ZM17.6777 8.9375H18.6777C18.6777 7.09729 20.1696 5.60547 22.0098 5.60547V4.60547V3.60547C19.065 3.60547 16.6777 5.99272 16.6777 8.9375H17.6777Z" fill="#00A797" mask="url(#path-8-inside-1_16765_49673)"/>
<path d="M36.0041 33.8195C35.6916 32.216 34.0468 31.2474 32.493 31.7518L22.1999 35.0931C21.1917 35.4206 20.6169 36.4813 20.8929 37.5048C21.1624 38.5032 22.1518 39.1287 23.1694 38.9445L33.8177 37.0175C35.3106 36.7472 36.2942 35.3086 36.0041 33.8195Z" fill="#59B4FF" stroke="#1F8EEA"/>
<path d="M6.85183 34.0117C7.14287 32.5188 8.65342 31.5981 10.1136 32.0238L24.863 36.3251C25.8232 36.6051 26.3729 37.6118 26.0898 38.571C25.828 39.4579 24.9389 40.0037 24.0295 39.836L8.92122 37.0496C7.50682 36.7887 6.5767 35.4234 6.85183 34.0117Z" fill="#59B4FF" stroke="#1F8EEA"/>
<path d="M35.0323 13.237C35.1952 12.8061 35.8048 12.8061 35.9677 13.237L36.6548 15.0543C36.7055 15.1885 36.8115 15.2945 36.9457 15.3452L38.763 16.0323C39.1939 16.1952 39.1939 16.8048 38.763 16.9677L36.9457 17.6548C36.8115 17.7055 36.7055 17.8115 36.6548 17.9457L35.9677 19.763C35.8048 20.1939 35.1952 20.1939 35.0323 19.763L34.3452 17.9457C34.2945 17.8115 34.1885 17.7055 34.0543 17.6548L32.237 16.9677C31.8061 16.8048 31.8061 16.1952 32.237 16.0323L34.0543 15.3452C34.1885 15.2945 34.2945 15.1885 34.3452 15.0543L35.0323 13.237Z" fill="#00BB86"/>
<path d="M9.03231 7.23698C9.19523 6.80608 9.80477 6.80608 9.96769 7.23698L10.6548 9.05433C10.7055 9.18852 10.8115 9.29445 10.9457 9.34519L12.763 10.0323C13.1939 10.1952 13.1939 10.8048 12.763 10.9677L10.9457 11.6548C10.8115 11.7055 10.7055 11.8115 10.6548 11.9457L9.96769 13.763C9.80477 14.1939 9.19523 14.1939 9.03231 13.763L8.34519 11.9457C8.29445 11.8115 8.18852 11.7055 8.05433 11.6548L6.23698 10.9677C5.80608 10.8048 5.80608 10.1952 6.23698 10.0323L8.05433 9.34519C8.18852 9.29445 8.29445 9.18852 8.34519 9.05433L9.03231 7.23698Z" fill="#00BB86"/>
</svg>
