<svg width="32" height="32" viewBox="0 0 32 32" fill="none" xmlns="http://www.w3.org/2000/svg">
<path d="M17.9628 12.3018C19.1238 12.3018 20.1032 13.0925 20.566 14.1572C21.3836 16.0378 22.973 18.2388 26.6675 20.1533C27.4185 20.5427 27.7806 21.4384 27.4473 22.216C27.1318 22.9521 26.3136 23.3026 25.5953 22.9484C23.4008 21.8654 19.5407 19.5497 19.5407 17.7168V21.9711C19.5407 23.3835 20.4431 26.343 21.5419 26.6126H10.5772C11.676 26.3428 12.5785 23.3834 12.5785 21.9711V17.7168C12.5785 19.5497 8.71835 21.8654 6.52377 22.9484C5.80551 23.3028 4.9866 22.9521 4.67109 22.216C4.33796 21.4384 4.70059 20.5426 5.45165 20.1533C9.14603 18.2388 10.7348 16.0378 11.5524 14.1572C12.0152 13.0925 12.9953 12.3018 14.1563 12.3018H17.9628Z" fill="#DEFFF0"/>
<path d="M19.1831 17.7175C19.1831 17.5202 19.343 17.3604 19.5402 17.3604C19.7375 17.3604 19.8974 17.5202 19.8974 17.7175C19.8974 18.0551 20.0794 18.4644 20.4561 18.9319C20.827 19.3923 21.3528 19.8678 21.9607 20.3305C23.1754 21.2551 24.6676 22.0932 25.7532 22.6289C26.2686 22.8828 26.8749 22.6439 27.1183 22.0758C27.3716 21.4847 27.1017 20.7821 26.5024 20.4714C22.7361 18.5196 21.0885 16.2571 20.2378 14.3002C19.8183 13.3356 18.9507 12.6596 17.9624 12.6596H14.1559C13.1674 12.6596 12.2991 13.3357 11.8798 14.3002C11.0291 16.257 9.38206 18.5196 5.61583 20.4714C5.0164 20.7821 4.7461 21.4848 4.9992 22.0758C5.24269 22.6439 5.84958 22.883 6.36499 22.6289C7.4506 22.0932 8.94287 21.2551 10.1575 20.3305C10.7654 19.8678 11.2912 19.3923 11.6621 18.9319C12.0388 18.4644 12.2209 18.0551 12.2209 17.7175C12.2209 17.5202 12.3808 17.3604 12.578 17.3604C12.7753 17.3604 12.9352 17.5202 12.9352 17.7175V21.9718C12.9352 22.7334 12.6964 23.8705 12.3227 24.8485C12.135 25.3397 11.9071 25.8091 11.6447 26.1794C11.6263 26.2054 11.6067 26.2306 11.5875 26.2561H20.5307C20.5116 26.2306 20.4919 26.2053 20.4735 26.1794C20.2111 25.809 19.9825 25.3398 19.7948 24.8485C19.4212 23.8705 19.1831 22.7334 19.1831 21.9718V17.7175ZM19.8974 21.9718C19.8974 22.6226 20.1101 23.6717 20.4624 24.5939C20.6376 25.0526 20.8409 25.462 21.0567 25.7665C21.2806 26.0824 21.479 26.2304 21.6266 26.2666C21.8019 26.3096 21.9173 26.4766 21.8958 26.6558C21.8741 26.8352 21.7221 26.9704 21.5415 26.9704H10.5768C10.3961 26.9704 10.2441 26.8352 10.2224 26.6558C10.2009 26.4766 10.3163 26.3097 10.4917 26.2666C10.6392 26.2304 10.8377 26.0824 11.0616 25.7665C11.2773 25.462 11.4806 25.052 11.6559 24.5932C12.0081 23.6711 12.2209 22.6225 12.2209 21.9718V19.377C12.2202 19.3779 12.2195 19.3788 12.2188 19.3797C11.7974 19.9028 11.2214 20.4184 10.59 20.899C9.32612 21.8611 7.79059 22.722 6.68168 23.2693C5.76066 23.7237 4.72962 23.2616 4.34211 22.3576C3.92906 21.3934 4.38402 20.3045 5.28659 19.8366C8.90892 17.9595 10.4396 15.8199 11.2241 14.0156C11.7305 12.8507 12.8223 11.9453 14.1559 11.9453H17.9624C19.296 11.9453 20.3871 12.8508 20.8935 14.0156C21.6779 15.8199 23.2092 17.9594 26.8316 19.8366C27.7343 20.3047 28.1886 21.3936 27.7754 22.3576C27.388 23.2614 26.3582 23.7233 25.4373 23.2693H25.4366C24.3276 22.722 22.7921 21.8611 21.5282 20.899C20.8968 20.4184 20.3208 19.9028 19.8995 19.3797C19.8987 19.3788 19.8981 19.3779 19.8974 19.377V21.9718Z" fill="#00A797"/>
<path d="M17.8806 12.3018C19.0412 12.3022 20.0211 13.0927 20.4838 14.1572C20.9338 15.1922 21.6181 16.3237 22.7578 17.4517L21.0202 20.0926C20.1053 19.2981 19.4577 18.4672 19.4577 17.7168V21.9711C19.4577 23.2836 20.2374 24.8189 21.2295 25.0654H10.7245C11.7162 24.8184 12.4962 23.2833 12.4962 21.9711V17.7168C12.4962 18.4692 11.8448 19.3024 10.9261 20.0989L9.18848 17.4587C10.3325 16.3284 11.0192 15.1944 11.4701 14.1572C11.933 13.0927 12.9126 12.3019 14.0734 12.3018H17.8806Z" fill="white"/>
<path d="M19.1003 17.7175C19.1003 17.5202 19.2602 17.3604 19.4574 17.3604C19.6547 17.3604 19.8146 17.5202 19.8146 17.7175C19.8146 17.9917 19.9347 18.3162 20.1899 18.6864C20.3827 18.9661 20.6419 19.255 20.9509 19.5479L22.2999 17.4971C21.2465 16.4027 20.5937 15.3076 20.1557 14.3002C19.7626 13.3962 18.975 12.7453 18.0638 12.6673L17.8803 12.6596H14.0731C13.085 12.6597 12.2171 13.3358 11.7977 14.3002C11.3587 15.31 10.7028 16.4072 9.64509 17.504L10.9948 19.5548C11.306 19.2606 11.5672 18.9702 11.7614 18.6892C12.018 18.3178 12.1388 17.9924 12.1388 17.7175C12.1388 17.5202 12.2987 17.3604 12.496 17.3604C12.6932 17.3604 12.8531 17.5202 12.8531 17.7175V21.9718C12.8531 22.6924 12.641 23.4633 12.2951 24.091C12.1738 24.311 12.0298 24.5212 11.8675 24.709H20.0859C19.9236 24.5212 19.7796 24.311 19.6583 24.091C19.3125 23.4633 19.1003 22.6925 19.1003 21.9718V17.7175ZM19.8146 21.9718C19.8146 22.5636 19.9921 23.2167 20.284 23.7464C20.582 24.2869 20.9591 24.6308 21.315 24.7194C21.4901 24.763 21.6054 24.9303 21.5836 25.1094C21.5616 25.2885 21.4097 25.4233 21.2292 25.4233H10.7242C10.5438 25.4233 10.3918 25.2885 10.3698 25.1094C10.348 24.9304 10.4628 24.7631 10.6377 24.7194C10.9937 24.6308 11.3713 24.2864 11.6694 23.7457C11.9612 23.216 12.1388 22.5633 12.1388 21.9718V19.3742C11.8657 19.7136 11.53 20.0483 11.1595 20.3696C11.0817 20.4369 10.9788 20.4673 10.877 20.4533C10.775 20.4392 10.6838 20.3816 10.6272 20.2956L8.88965 17.6554C8.79633 17.5133 8.81617 17.3251 8.93708 17.2055C10.045 16.1109 10.7071 15.016 11.142 14.0156C11.6484 12.8511 12.7397 11.9454 14.0731 11.9453H17.8803L18.1272 11.9558C19.3475 12.0598 20.3367 12.9237 20.8114 14.0156C21.2455 15.014 21.9051 16.1063 23.0086 17.1985C23.1295 17.3181 23.1494 17.5064 23.0561 17.6484L21.3185 20.2893C21.2619 20.3753 21.1708 20.4329 21.0688 20.447C20.9668 20.461 20.8633 20.4308 20.7856 20.3633C20.4182 20.0442 20.0857 19.7119 19.8146 19.3749V21.9718Z" fill="#00BB86"/>
<path d="M19.6271 21.9714C19.6271 23.3823 20.468 26.3612 21.6095 26.6401L15.3504 26.6129H9.96191C11.1541 26.3429 12.2785 23.3836 12.2785 21.9714V21.585H19.6104L19.6271 21.9714Z" fill="#59B4FF"/>
<path d="M19.9519 21.2275L19.9672 21.5693L19.984 21.9558V21.9711C19.984 22.6248 20.1832 23.68 20.5253 24.6064C20.6956 25.0677 20.8945 25.4797 21.1098 25.786C21.3321 26.1023 21.5354 26.2543 21.6943 26.2931L21.6078 26.9969L15.3488 26.9697H9.96164L9.88281 26.2645C10.0638 26.2235 10.2939 26.0628 10.549 25.7476C10.7968 25.4413 11.0344 25.0307 11.2416 24.573C11.6596 23.6497 11.921 22.6087 11.921 21.9711V21.2275H19.9519ZM12.6353 21.9711C12.6353 22.7457 12.3346 23.8905 11.8924 24.8673C11.6695 25.3597 11.4025 25.8283 11.1042 26.1968C11.088 26.2168 11.0706 26.2358 11.054 26.2554H15.3516L20.5866 26.2778C20.5663 26.2506 20.5454 26.2238 20.5259 26.1961C20.2626 25.8215 20.0375 25.3479 19.8549 24.8534C19.4935 23.8744 19.2725 22.743 19.2697 21.9858V21.9865L19.2676 21.9418H12.6353V21.9711Z" fill="#1F8EEA"/>
<path d="M13.0557 6.88725C13.0557 5.17833 14.441 3.79297 16.15 3.79297C17.8589 3.79297 19.2442 5.17833 19.2442 6.88726V8.4344C19.2442 10.1433 17.8589 11.5287 16.15 11.5287C14.441 11.5287 13.0557 10.1433 13.0557 8.4344V6.88725Z" fill="#DEFFF0"/>
<path d="M18.53 8.4344V6.88726C18.53 5.57283 17.4644 4.50726 16.15 4.50725C14.8355 4.50725 13.7699 5.57283 13.7699 6.88726V8.4344C13.77 9.74881 14.8355 10.8144 16.15 10.8144V11.5287L15.9909 11.5245C14.4086 11.4444 13.14 10.1758 13.0598 8.59344L13.0557 8.4344V6.88726C13.0557 5.17834 14.441 3.79297 16.15 3.79297L16.309 3.79715C17.944 3.87995 19.2442 5.23169 19.2442 6.88726V8.4344L19.2401 8.59344C19.1573 10.2284 17.8055 11.5287 16.15 11.5287V10.8144C17.4644 10.8144 18.5299 9.74881 18.53 8.4344Z" fill="#00A797"/>
<path d="M16.15 3.79297C17.8589 3.79298 19.2443 5.17836 19.2443 6.88729V7.19143C19.2443 7.32187 19.2348 7.45027 19.2192 7.57647C18.5131 7.72451 17.6954 7.68262 16.9068 7.41394C16.5691 7.29886 16.2624 7.15033 15.9916 6.97798C15.7208 7.15041 15.4136 7.29883 15.0758 7.41394C14.4049 7.64247 13.7132 7.70645 13.0871 7.62949C13.0668 7.48635 13.0557 7.34016 13.0557 7.19143V6.88729C13.0557 5.17836 14.441 3.79297 16.15 3.79297Z" fill="#49CF92"/>
<path d="M16.15 3.79297C17.8589 3.79298 19.2443 5.17836 19.2443 6.88729V7.19143C19.2443 7.32187 19.2348 7.45027 19.2192 7.57647C18.5131 7.72451 17.6954 7.68262 16.9068 7.41394C16.5691 7.29886 16.2624 7.15033 15.9916 6.97798C15.7208 7.15041 15.4136 7.29883 15.0758 7.41394C14.4049 7.64247 13.7132 7.70645 13.0871 7.62949C13.0668 7.48635 13.0557 7.34016 13.0557 7.19143V6.88729C13.0557 5.17836 14.441 3.79297 16.15 3.79297ZM13.7699 6.9417C14.1207 6.92569 14.4859 6.86054 14.8456 6.73802C15.1313 6.64066 15.3866 6.51621 15.608 6.37529L15.9916 6.13115L16.3753 6.37529C16.5968 6.51633 16.8518 6.6408 17.137 6.73802C17.608 6.89849 18.087 6.95982 18.53 6.9417V6.88729C18.53 5.61403 17.5301 4.57394 16.2727 4.51005L16.15 4.50726C14.8355 4.50726 13.7699 5.57285 13.7699 6.88729V6.9417Z" fill="#00A797"/>
<path d="M26.4969 24.5918C26.2326 23.236 24.8417 22.4169 23.5279 22.8434L16.1762 25.2302C15.275 25.5228 14.7613 26.4705 15.008 27.3854C15.2487 28.2778 16.1327 28.8373 17.0423 28.6727L24.6482 27.2962C25.9105 27.0677 26.7423 25.851 26.4969 24.5918Z" fill="#59B4FF"/>
<path d="M26.4969 24.5912C26.2327 23.2355 24.8418 22.416 23.5281 22.8424L16.176 25.2297C15.2749 25.5224 14.7616 26.4699 15.0083 27.3846L15.0607 27.5478C15.3595 28.344 16.1895 28.8261 17.0422 28.6718L24.6482 27.2953L24.5211 26.5924L16.9152 27.9688C16.3709 28.0673 15.8417 27.7325 15.6976 27.1984C15.5501 26.6511 15.8573 26.084 16.3964 25.9088L23.7487 23.5222C24.6546 23.2281 25.6136 23.793 25.7959 24.7279C25.9649 25.596 25.3915 26.4347 24.5211 26.5924L24.6482 27.2953C25.8711 27.074 26.6902 25.9252 26.517 24.7088L26.4969 24.5912Z" fill="#1F8EEA"/>
<path d="M4.97286 24.729C5.22089 23.4564 6.50851 22.6717 7.75327 23.0347L18.2886 26.1067C19.1642 26.362 19.6658 27.2801 19.4077 28.1549C19.1689 28.9638 18.3579 29.4618 17.5285 29.3088L6.73645 27.3182C5.53081 27.0958 4.73833 25.9324 4.97286 24.729Z" fill="#59B4FF"/>
<path d="M4.97282 24.7292C5.22089 23.4566 6.50873 22.6717 7.75346 23.0347L18.2887 26.1071C19.1642 26.3625 19.6657 27.2804 19.4076 28.1551C19.1688 28.964 18.3577 29.4619 17.5282 29.3089L6.7366 27.3187L6.86571 26.6161L17.658 28.6065C18.1279 28.6932 18.5876 28.4109 18.7228 27.9527C18.8688 27.4573 18.5842 26.9375 18.0883 26.7929L7.553 23.7205C6.71175 23.4754 5.84159 24.0058 5.67391 24.8659C5.5154 25.6792 6.05091 26.4657 6.86571 26.6161L6.7366 27.3187L6.62471 27.2948C5.4823 27.0232 4.74561 25.895 4.97282 24.7292Z" fill="#1F8EEA"/>
<path d="M25.5244 10.4677C25.6738 10.0066 26.3262 10.0066 26.4756 10.4677L26.7541 11.3268C26.798 11.4623 26.8976 11.5726 27.0279 11.6301L27.9629 12.0425C28.3605 12.2179 28.3605 12.7821 27.9629 12.9575L27.0279 13.3699C26.8976 13.4274 26.798 13.5377 26.7541 13.6732L26.4756 14.5323C26.3262 14.9934 25.6738 14.9934 25.5244 14.5323L25.2459 13.6732C25.202 13.5377 25.1024 13.4274 24.9721 13.3699L24.0371 12.9575C23.6395 12.7821 23.6395 12.2179 24.0371 12.0425L24.9721 11.6301C25.1024 11.5726 25.202 11.4623 25.2459 11.3268L25.5244 10.4677Z" fill="#00BB86"/>
<path d="M6.53231 6.23698C6.69523 5.80608 7.30477 5.80608 7.46769 6.23698L7.74327 6.96587C7.79401 7.10006 7.89994 7.20599 8.03413 7.25673L8.76302 7.53231C9.19392 7.69523 9.19392 8.30477 8.76302 8.46769L8.03413 8.74327C7.89994 8.79401 7.79401 8.89994 7.74327 9.03413L7.46769 9.76302C7.30477 10.1939 6.69523 10.1939 6.53231 9.76302L6.25673 9.03413C6.20599 8.89994 6.10006 8.79401 5.96587 8.74327L5.23698 8.46769C4.80608 8.30477 4.80608 7.69523 5.23698 7.53231L5.96587 7.25673C6.10006 7.20599 6.20599 7.10006 6.25673 6.96587L6.53231 6.23698Z" fill="#00BB86"/>
</svg>
