<svg width="45" height="45" viewBox="0 0 45 45" fill="none" xmlns="http://www.w3.org/2000/svg">
<path d="M26.749 16.4023C27.0352 16.4804 27.3117 16.5908 27.5723 16.7412L28.6807 17.3809C28.7618 17.4012 28.8433 17.427 28.9238 17.458L32.1201 18.6875C32.6583 18.8944 33.23 19 33.8066 19H38.3809C39.2387 19.0001 39.9345 19.6958 39.9346 20.5537C39.9346 21.3687 39.3042 22.0454 38.4912 22.1035L34.6338 22.3789C33.5066 22.4594 32.3735 22.3803 31.2686 22.1436L28.2822 21.5029L21.999 32.5L18.5283 30.0723L19.0615 29.1465L16.3857 27.6016C17.6093 27.9816 20.1798 25.8845 20.9199 24.6025L23.1504 20.7412C22.1397 22.4915 14.2923 21.6599 10.9121 21.1611C10.1004 21.0414 9.55859 20.3088 9.63867 19.4922C9.72826 18.579 10.5583 17.9253 11.4727 18.002C16.3516 18.4109 20.6735 17.7453 23.2988 16.7236C24.2901 16.3378 25.4256 16.1367 26.459 16.335L26.5098 16.248L26.749 16.4023Z" fill="#DEFFF0"/>
<path d="M26.749 16.4023L26.478 16.8225L26.5429 16.8644L26.6174 16.8847L26.749 16.4023ZM27.5723 16.7412L27.3223 17.1742L27.3223 17.1743L27.5723 16.7412ZM28.6807 17.3809L28.4307 17.8139L28.4912 17.8488L28.5589 17.8658L28.6807 17.3809ZM28.9238 17.458L29.1033 16.9913L29.1033 16.9913L28.9238 17.458ZM32.1201 18.6875L31.9406 19.1542L31.9407 19.1542L32.1201 18.6875ZM33.8066 19L33.8066 19.5H33.8066V19ZM38.3809 19L38.3809 18.5H38.3809V19ZM39.9346 20.5537H40.4346V20.5537L39.9346 20.5537ZM38.4912 22.1035L38.5268 22.6022L38.5268 22.6022L38.4912 22.1035ZM34.6338 22.3789L34.5982 21.8802L34.5982 21.8802L34.6338 22.3789ZM31.2686 22.1436L31.1637 22.6324L31.1638 22.6325L31.2686 22.1436ZM28.2822 21.5029L28.3871 21.0141L28.0295 20.9373L27.8481 21.2549L28.2822 21.5029ZM21.999 32.5L21.7124 32.9097L22.1614 33.2237L22.4332 32.748L21.999 32.5ZM18.5283 30.0723L18.095 29.8227L17.8665 30.2195L18.2417 30.482L18.5283 30.0723ZM19.0615 29.1465L19.4948 29.396L19.7441 28.9632L19.3115 28.7135L19.0615 29.1465ZM16.3857 27.6016L16.534 27.1241L16.1357 28.0346L16.3857 27.6016ZM20.9199 24.6025L20.487 24.3524L20.4869 24.3525L20.9199 24.6025ZM23.1504 20.7412L23.5834 20.9912L22.7174 20.4911L23.1504 20.7412ZM10.9121 21.1611L10.8391 21.6558L10.8391 21.6558L10.9121 21.1611ZM9.63867 19.4922L9.14106 19.4434L9.14106 19.4434L9.63867 19.4922ZM11.4727 18.002L11.4309 18.5002H11.4309L11.4727 18.002ZM23.2988 16.7236L23.4802 17.1896L23.4802 17.1896L23.2988 16.7236ZM26.459 16.335L26.3648 16.826L26.7122 16.8927L26.8907 16.5872L26.459 16.335ZM26.5098 16.248L26.7808 15.8278L26.3416 15.5447L26.0781 15.9958L26.5098 16.248ZM26.749 16.4023L26.6174 16.8847C26.867 16.9528 27.1029 17.0476 27.3223 17.1742L27.5723 16.7412L27.8223 16.3082C27.5205 16.134 27.2035 16.008 26.8806 15.92L26.749 16.4023ZM27.5723 16.7412L27.3223 17.1743L28.4307 17.8139L28.6807 17.3809L28.9306 16.9478L27.8222 16.3081L27.5723 16.7412ZM28.6807 17.3809L28.5589 17.8658C28.6201 17.8812 28.6823 17.9008 28.7443 17.9247L28.9238 17.458L29.1033 16.9913C29.0042 16.9532 28.9035 16.9213 28.8024 16.8959L28.6807 17.3809ZM28.9238 17.458L28.7443 17.9247L31.9406 19.1542L32.1201 18.6875L32.2996 18.2208L29.1033 16.9913L28.9238 17.458ZM32.1201 18.6875L31.9407 19.1542C32.5364 19.3833 33.169 19.5 33.8066 19.5L33.8066 19L33.8067 18.5C33.2911 18.5 32.7802 18.4056 32.2996 18.2208L32.1201 18.6875ZM33.8066 19V19.5H38.3809V19V18.5H33.8066V19ZM38.3809 19L38.3808 19.5C38.9626 19.5 39.4345 19.972 39.4346 20.5538L39.9346 20.5537L40.4346 20.5537C40.4345 19.4197 39.5149 18.5001 38.3809 18.5L38.3809 19ZM39.9346 20.5537H39.4346C39.4346 21.1063 39.007 21.5654 38.4556 21.6048L38.4912 22.1035L38.5268 22.6022C39.6013 22.5255 40.4346 21.6312 40.4346 20.5537H39.9346ZM38.4912 22.1035L38.4556 21.6048L34.5982 21.8802L34.6338 22.3789L34.6694 22.8776L38.5268 22.6022L38.4912 22.1035ZM34.6338 22.3789L34.5982 21.8802C33.518 21.9573 32.4321 21.8815 31.3733 21.6547L31.2686 22.1436L31.1638 22.6325C32.3149 22.8791 33.4953 22.9615 34.6694 22.8776L34.6338 22.3789ZM31.2686 22.1436L31.3734 21.6547L28.3871 21.0141L28.2822 21.5029L28.1774 21.9918L31.1637 22.6324L31.2686 22.1436ZM28.2822 21.5029L27.8481 21.2549L21.5649 32.252L21.999 32.5L22.4332 32.748L28.7164 21.751L28.2822 21.5029ZM21.999 32.5L22.2856 32.0903L18.8149 29.6626L18.5283 30.0723L18.2417 30.482L21.7124 32.9097L21.999 32.5ZM18.5283 30.0723L18.9616 30.3218L19.4948 29.396L19.0615 29.1465L18.6282 28.8969L18.095 29.8227L18.5283 30.0723ZM19.0615 29.1465L19.3115 28.7135L16.6357 27.1686L16.3857 27.6016L16.1357 28.0346L18.8115 29.5795L19.0615 29.1465ZM16.3857 27.6016L16.2374 28.0791C16.7038 28.2239 17.2237 28.1178 17.6857 27.9403C18.1626 27.757 18.6599 27.4656 19.1255 27.1316C20.0471 26.4705 20.9349 25.5766 21.3529 24.8525L20.9199 24.6025L20.4869 24.3525C20.1648 24.9104 19.3973 25.706 18.5427 26.319C18.1203 26.622 17.6992 26.8638 17.3269 27.0068C16.9397 27.1557 16.6795 27.1692 16.534 27.1241L16.3857 27.6016ZM20.9199 24.6025L21.3529 24.8526L23.5833 20.9913L23.1504 20.7412L22.7174 20.4911L20.487 24.3524L20.9199 24.6025ZM23.1504 20.7412L22.7174 20.4912C22.6644 20.5829 22.5369 20.7045 22.2669 20.8267C22.0021 20.9465 21.6448 21.0463 21.2022 21.1226C20.3178 21.275 19.1732 21.3201 17.9301 21.2947C15.449 21.2438 12.6652 20.9144 10.9851 20.6665L10.9121 21.1611L10.8391 21.6558C12.5392 21.9066 15.3692 22.2424 17.9096 22.2945C19.1771 22.3204 20.3952 22.2764 21.372 22.1081C21.86 22.024 22.3081 21.9056 22.679 21.7378C23.0449 21.5723 23.3837 21.3371 23.5834 20.9912L23.1504 20.7412ZM10.9121 21.1611L10.9851 20.6665C10.4516 20.5878 10.0808 20.107 10.1363 19.541L9.63867 19.4922L9.14106 19.4434C9.0364 20.5106 9.74909 21.4949 10.8391 21.6558L10.9121 21.1611ZM9.63867 19.4922L10.1363 19.541C10.1976 18.9156 10.7729 18.445 11.4309 18.5002L11.4727 18.002L11.5144 17.5037C10.3436 17.4056 9.25889 18.2424 9.14106 19.4434L9.63867 19.4922ZM11.4727 18.002L11.4309 18.5002C16.3686 18.9141 20.7695 18.2445 23.4802 17.1896L23.2988 16.7236L23.1175 16.2577C20.5776 17.2461 16.3347 17.9078 11.5144 17.5037L11.4727 18.002ZM23.2988 16.7236L23.4802 17.1896C24.4156 16.8255 25.4524 16.651 26.3648 16.826L26.459 16.335L26.5532 15.8439C25.3988 15.6224 24.1646 15.8501 23.1175 16.2577L23.2988 16.7236ZM26.459 16.335L26.8907 16.5872L26.9415 16.5003L26.5098 16.248L26.0781 15.9958L26.0273 16.0827L26.459 16.335ZM26.5098 16.248L26.2388 16.6682L26.478 16.8225L26.749 16.4023L27.02 15.9821L26.7808 15.8278L26.5098 16.248Z" fill="#00A797"/>
<rect x="26.25" y="7.41504" width="6" height="8" rx="3" fill="#DEFFF0" stroke="#00A797"/>
<path d="M23.5635 16.4668C24.5136 15.9064 25.7019 15.7278 26.6572 16.2793L28.2949 17.2246C28.3758 17.2449 28.4568 17.2709 28.5371 17.3018L30.6123 18.0986V21.9287L28.4619 21.4678L21.999 32L18.1416 29.915L18.6748 28.9902L15.625 27.2295C16.8672 27.6298 19.2763 26.2517 19.999 25L22.7148 20.6621C22.3611 21.185 21.5868 21.5219 20.6123 21.7314V17.6016C21.8202 17.325 22.783 16.9271 23.5635 16.4668Z" fill="white"/>
<path d="M23.5635 16.4668L23.8175 16.8975L23.8175 16.8975L23.5635 16.4668ZM26.6572 16.2793L26.4073 16.7123L26.4073 16.7123L26.6572 16.2793ZM28.2949 17.2246L28.045 17.6576C28.085 17.6808 28.1282 17.6982 28.173 17.7095L28.2949 17.2246ZM28.5371 17.3018L28.3576 17.7684L28.3579 17.7685L28.5371 17.3018ZM30.6123 18.0986H31.1123C31.1123 17.8916 30.9848 17.7061 30.7915 17.6319L30.6123 18.0986ZM30.6123 21.9287L30.5075 22.4176C30.6552 22.4493 30.8092 22.4125 30.9266 22.3176C31.0441 22.2226 31.1123 22.0797 31.1123 21.9287H30.6123ZM28.4619 21.4678L28.5667 20.9789C28.3594 20.9344 28.1466 21.0256 28.0358 21.2063L28.4619 21.4678ZM21.999 32L21.7613 32.4399C21.9948 32.5661 22.2863 32.4878 22.4252 32.2615L21.999 32ZM18.1416 29.915L17.7084 29.6653C17.641 29.7822 17.6237 29.9215 17.6605 30.0514C17.6973 30.1812 17.7851 30.2907 17.9039 30.3549L18.1416 29.915ZM18.6748 28.9902L19.108 29.24C19.2458 29.0008 19.1638 28.6952 18.9248 28.5572L18.6748 28.9902ZM15.625 27.2295L15.7784 26.7536C15.535 26.6752 15.2717 26.793 15.168 27.0267C15.0643 27.2604 15.1536 27.5347 15.375 27.6625L15.625 27.2295ZM19.999 25L19.5752 24.7347C19.5721 24.7397 19.569 24.7448 19.566 24.75L19.999 25ZM22.7148 20.6621L23.1386 20.9274C23.2833 20.6963 23.2162 20.3919 22.9876 20.2431C22.7591 20.0943 22.4535 20.1561 22.3007 20.3819L22.7148 20.6621ZM20.6123 21.7314H20.1123C20.1123 21.8825 20.1806 22.0255 20.2981 22.1204C20.4156 22.2153 20.5698 22.252 20.7174 22.2203L20.6123 21.7314ZM20.6123 17.6016L20.5007 17.1142C20.2734 17.1662 20.1123 17.3684 20.1123 17.6016H20.6123ZM23.5635 16.4668L23.8175 16.8975C24.6696 16.3949 25.6582 16.2799 26.4073 16.7123L26.6572 16.2793L26.9072 15.8463C25.7456 15.1757 24.3577 15.418 23.3095 16.0361L23.5635 16.4668ZM26.6572 16.2793L26.4073 16.7123L28.045 17.6576L28.2949 17.2246L28.5449 16.7916L26.9072 15.8463L26.6572 16.2793ZM28.2949 17.2246L28.173 17.7095C28.2331 17.7246 28.2948 17.7443 28.3576 17.7684L28.5371 17.3018L28.7166 16.8351C28.6188 16.7975 28.5186 16.7653 28.4168 16.7397L28.2949 17.2246ZM28.5371 17.3018L28.3579 17.7685L30.4331 18.5654L30.6123 18.0986L30.7915 17.6319L28.7163 16.835L28.5371 17.3018ZM30.6123 18.0986H30.1123V21.9287H30.6123H31.1123V18.0986H30.6123ZM30.6123 21.9287L30.7171 21.4398L28.5667 20.9789L28.4619 21.4678L28.3571 21.9567L30.5075 22.4176L30.6123 21.9287ZM28.4619 21.4678L28.0358 21.2063L21.5729 31.7385L21.999 32L22.4252 32.2615L28.8881 21.7293L28.4619 21.4678ZM21.999 32L22.2368 31.5601L18.3793 29.4752L18.1416 29.915L17.9039 30.3549L21.7613 32.4399L21.999 32ZM18.1416 29.915L18.5748 30.1648L19.108 29.24L18.6748 28.9902L18.2416 28.7405L17.7084 29.6653L18.1416 29.915ZM18.6748 28.9902L18.9248 28.5572L15.875 26.7965L15.625 27.2295L15.375 27.6625L18.4248 29.4233L18.6748 28.9902ZM15.625 27.2295L15.4716 27.7054C15.8998 27.8434 16.3824 27.8167 16.8404 27.7139C17.3053 27.6095 17.7877 27.4171 18.2416 27.1757C19.1341 26.701 20.0062 25.9876 20.432 25.25L19.999 25L19.566 24.75C19.2692 25.2641 18.5754 25.8656 17.772 26.2928C17.3781 26.5023 16.9801 26.6576 16.6213 26.7382C16.2557 26.8203 15.9713 26.8158 15.7784 26.7536L15.625 27.2295ZM19.999 25L20.4228 25.2653L23.1386 20.9274L22.7148 20.6621L22.291 20.3968L19.5752 24.7347L19.999 25ZM22.7148 20.6621L22.3007 20.3819C22.1897 20.546 21.9903 20.7118 21.6768 20.865C21.3656 21.0171 20.9705 21.143 20.5072 21.2426L20.6123 21.7314L20.7174 22.2203C21.2286 22.1103 21.7079 21.9629 22.1159 21.7635C22.5216 21.5651 22.8863 21.301 23.129 20.9423L22.7148 20.6621ZM20.6123 21.7314H21.1123V17.6016H20.6123H20.1123V21.7314H20.6123ZM20.6123 17.6016L20.7239 18.089C21.978 17.8018 22.9894 17.3858 23.8175 16.8975L23.5635 16.4668L23.3095 16.0361C22.5765 16.4684 21.6623 16.8482 20.5007 17.1142L20.6123 17.6016Z" fill="#0DCE91"/>
<path d="M6.69531 22.4424C7.55578 21.6323 8.9014 21.6432 9.74805 22.4678L14.4414 27.0391C14.4667 27.0638 14.4897 27.0906 14.5137 27.1162L17.0859 27.082C17.9654 26.7028 18.9743 25.9096 19.6924 25.1406L24.6836 27.7666L24.127 28.7295C24.2077 28.8699 24.2783 29.0192 24.333 29.1787L27.6172 38.7471C27.9607 39.7488 27.4453 40.8427 26.4541 41.2158C25.5066 41.5723 24.4435 41.1473 24.002 40.2363L19.8906 31.7539L13.0264 31.2295C12.4685 31.1868 11.9782 30.9217 11.6357 30.5273C11.5115 30.4453 11.3936 30.3495 11.2842 30.2402L6.64844 25.6104C5.7673 24.7302 5.78862 23.2962 6.69531 22.4424Z" fill="#70BEFF"/>
<path d="M6.69531 22.4424L6.35258 22.0783L6.35252 22.0784L6.69531 22.4424ZM9.74805 22.4678L10.0969 22.1096L10.0969 22.1096L9.74805 22.4678ZM14.4414 27.0391L14.7904 26.681L14.7903 26.6809L14.4414 27.0391ZM14.5137 27.1162L14.1486 27.4579L14.2995 27.6191L14.5203 27.6162L14.5137 27.1162ZM17.0859 27.082L17.0926 27.582L17.1923 27.5807L17.2839 27.5412L17.0859 27.082ZM19.6924 25.1406L19.9252 24.6981L19.5874 24.5204L19.327 24.7994L19.6924 25.1406ZM24.6836 27.7666L25.1165 28.0168L25.3769 27.5664L24.9164 27.3241L24.6836 27.7666ZM24.127 28.7295L23.6941 28.4793L23.5498 28.7288L23.6935 28.9787L24.127 28.7295ZM24.333 29.1787L23.8601 29.341L23.8601 29.341L24.333 29.1787ZM27.6172 38.7471L28.0901 38.5849L28.0901 38.5847L27.6172 38.7471ZM26.4541 41.2158L26.6302 41.6838L26.6302 41.6838L26.4541 41.2158ZM24.002 40.2363L23.552 40.4544L23.552 40.4544L24.002 40.2363ZM19.8906 31.7539L20.3406 31.5358L20.2152 31.2772L19.9287 31.2554L19.8906 31.7539ZM13.0264 31.2295L12.9882 31.728L12.9883 31.728L13.0264 31.2295ZM11.6357 30.5273L12.0133 30.1995L11.9684 30.1478L11.9113 30.1101L11.6357 30.5273ZM11.2842 30.2402L10.9309 30.594L10.9309 30.594L11.2842 30.2402ZM6.64844 25.6104L6.29508 25.9641L6.29511 25.9641L6.64844 25.6104ZM6.69531 22.4424L7.03804 22.8064C7.70374 22.1797 8.74448 22.1883 9.3992 22.826L9.74805 22.4678L10.0969 22.1096C9.05832 21.0981 7.40782 21.0849 6.35258 22.0783L6.69531 22.4424ZM9.74805 22.4678L9.39918 22.826L14.0925 27.3972L14.4414 27.0391L14.7903 26.6809L10.0969 22.1096L9.74805 22.4678ZM14.4414 27.0391L14.0925 27.3972C14.1081 27.4124 14.1031 27.4092 14.1486 27.4579L14.5137 27.1162L14.8787 26.7745C14.8764 26.7721 14.8254 26.7151 14.7904 26.681L14.4414 27.0391ZM14.5137 27.1162L14.5203 27.6162L17.0926 27.582L17.0859 27.082L17.0793 26.5821L14.507 26.6163L14.5137 27.1162ZM17.0859 27.082L17.2839 27.5412C18.2464 27.1261 19.3098 26.2829 20.0578 25.4819L19.6924 25.1406L19.327 24.7994C18.6387 25.5364 17.6845 26.2794 16.888 26.6229L17.0859 27.082ZM19.6924 25.1406L19.4596 25.5831L24.4508 28.2091L24.6836 27.7666L24.9164 27.3241L19.9252 24.6981L19.6924 25.1406ZM24.6836 27.7666L24.2507 27.5164L23.6941 28.4793L24.127 28.7295L24.5598 28.9797L25.1165 28.0168L24.6836 27.7666ZM24.127 28.7295L23.6935 28.9787C23.7606 29.0955 23.8171 29.2158 23.8601 29.341L24.333 29.1787L24.8059 29.0164C24.7394 28.8227 24.6547 28.6442 24.5604 28.4803L24.127 28.7295ZM24.333 29.1787L23.8601 29.341L27.1443 38.9094L27.6172 38.7471L28.0901 38.5847L24.8059 29.0164L24.333 29.1787ZM27.6172 38.7471L27.1442 38.9093C27.4 39.6552 27.0162 40.47 26.278 40.7479L26.4541 41.2158L26.6302 41.6838C27.8744 41.2155 28.5214 39.8425 28.0901 38.5849L27.6172 38.7471ZM26.4541 41.2158L26.278 40.7478C25.5727 41.0132 24.7808 40.6969 24.4519 40.0182L24.002 40.2363L23.552 40.4544C24.1062 41.5976 25.4405 42.1314 26.6302 41.6838L26.4541 41.2158ZM24.002 40.2363L24.4519 40.0182L20.3406 31.5358L19.8906 31.7539L19.4407 31.972L23.552 40.4544L24.002 40.2363ZM19.8906 31.7539L19.9287 31.2554L13.0645 30.7309L13.0264 31.2295L12.9883 31.728L19.8525 32.2525L19.8906 31.7539ZM13.0264 31.2295L13.0645 30.7309C12.6441 30.6988 12.2737 30.4995 12.0133 30.1995L11.6357 30.5273L11.2582 30.8552C11.6827 31.344 12.2928 31.6748 12.9882 31.728L13.0264 31.2295ZM11.6357 30.5273L11.9113 30.1101C11.8151 30.0466 11.7232 29.972 11.6375 29.8864L11.2842 30.2402L10.9309 30.594C11.064 30.727 11.208 30.8441 11.3602 30.9446L11.6357 30.5273ZM11.2842 30.2402L11.6375 29.8865L7.00177 25.2566L6.64844 25.6104L6.29511 25.9641L10.9309 30.594L11.2842 30.2402ZM6.64844 25.6104L7.0018 25.2566C6.32033 24.5759 6.33673 23.4669 7.0381 22.8064L6.69531 22.4424L6.35252 22.0784C5.24051 23.1256 5.21428 24.8845 6.29508 25.9641L6.64844 25.6104Z" fill="#1F8EEA"/>
<mask id="path-8-inside-1_16765_49777" fill="white">
<path d="M29.25 6.91504C30.515 6.91504 31.6234 7.58624 32.2383 8.5918C31.8954 9.63326 30.7875 10.7621 29.2461 11.5049C27.9998 12.1055 26.733 12.3259 25.75 12.1875V10.415C25.75 8.48216 27.3172 6.91524 29.25 6.91504Z"/>
</mask>
<path d="M29.25 6.91504C30.515 6.91504 31.6234 7.58624 32.2383 8.5918C31.8954 9.63326 30.7875 10.7621 29.2461 11.5049C27.9998 12.1055 26.733 12.3259 25.75 12.1875V10.415C25.75 8.48216 27.3172 6.91524 29.25 6.91504Z" fill="#49CF92"/>
<path d="M29.25 6.91504V5.91504H29.2499L29.25 6.91504ZM32.2383 8.5918L33.1881 8.90455L33.3329 8.46494L33.0914 8.0701L32.2383 8.5918ZM29.2461 11.5049L29.6802 12.4057L29.6802 12.4057L29.2461 11.5049ZM25.75 12.1875H24.75V13.0566L25.6106 13.1777L25.75 12.1875ZM25.75 10.415H24.75H25.75ZM29.25 6.91504V7.91504C30.1524 7.91504 30.9443 8.39262 31.3852 9.1135L32.2383 8.5918L33.0914 8.0701C32.3024 6.77986 30.8776 5.91504 29.25 5.91504V6.91504ZM32.2383 8.5918L31.2884 8.27905C31.0605 8.97127 30.2116 9.92956 28.812 10.604L29.2461 11.5049L29.6802 12.4057C31.3635 11.5946 32.7302 10.2952 33.1881 8.90455L32.2383 8.5918ZM29.2461 11.5049L28.812 10.604C27.7005 11.1397 26.6338 11.3021 25.8894 11.1973L25.75 12.1875L25.6106 13.1777C26.8322 13.3497 28.2992 13.0713 29.6802 12.4057L29.2461 11.5049ZM25.75 12.1875H26.75V10.415H25.75H24.75V12.1875H25.75ZM25.75 10.415H26.75C26.75 9.03455 27.8694 7.91518 29.2501 7.91504L29.25 6.91504L29.2499 5.91504C26.765 5.91529 24.75 7.92978 24.75 10.415H25.75Z" fill="#00A797" mask="url(#path-8-inside-1_16765_49777)"/>
<rect x="12.7314" y="5.58496" width="2" height="5" rx="1" transform="rotate(-30 12.7314 5.58496)" fill="#0DCE91"/>
<rect x="19.9141" y="4" width="2" height="5" rx="1" fill="#0DCE91"/>
<rect x="7.99902" y="10.6836" width="2" height="5" rx="1" transform="rotate(-60 7.99902 10.6836)" fill="#0DCE91"/>
</svg>
