<svg width="64" height="64" viewBox="0 0 64 64" fill="none" xmlns="http://www.w3.org/2000/svg">
<path d="M38.2119 22.0186C38.6466 22.1372 39.0665 22.3048 39.4624 22.5333L41.1461 23.5049C41.2694 23.5359 41.3931 23.5751 41.5154 23.6221L46.3707 25.4898C47.1882 25.8041 48.0567 25.9644 48.9325 25.9645H55.8808C57.184 25.9646 58.2408 27.0215 58.241 28.3246C58.241 29.5626 57.2834 30.5905 56.0485 30.6788L50.189 31.0971C48.4768 31.2194 46.7556 31.0992 45.0771 30.7396L40.5408 29.7665L30.9965 46.4712L25.7244 42.7834L26.5344 41.3772L22.4698 39.0304C24.3284 39.6076 28.2331 36.4221 29.3573 34.4748L32.7455 28.6094C31.2102 31.2681 19.2898 30.0049 14.1553 29.2473C12.9222 29.0653 12.0992 27.9525 12.2209 26.7121C12.357 25.3249 13.6178 24.332 15.0067 24.4484C22.418 25.0697 28.9831 24.0586 32.9709 22.5066C34.4767 21.9205 36.2016 21.615 37.7713 21.9162L37.8484 21.7842L38.2119 22.0186Z" fill="#DEFFF0"/>
<path d="M57.4818 28.3243C57.4817 27.4957 56.8514 26.8145 56.0443 26.7326L55.8812 26.7237H48.9328C47.9643 26.7236 47.003 26.5465 46.098 26.1985L41.2428 24.3309C41.1486 24.2947 41.0538 24.2652 40.9609 24.2419L40.8586 24.2152L40.7666 24.1618L39.0829 23.1902C38.7498 22.9979 38.3909 22.8544 38.0119 22.7511L37.8992 22.7199L37.8858 22.711L37.6292 22.6621C36.2434 22.3962 34.668 22.6609 33.2472 23.2139C29.1295 24.8164 22.4437 25.8334 14.9433 25.2046C13.944 25.1211 13.071 25.8361 12.9777 26.786C12.8934 27.6458 13.4565 28.3753 14.2668 28.4949C16.8188 28.8714 21.0469 29.3729 24.8154 29.4502C26.7037 29.4889 28.4429 29.4206 29.7864 29.1891C30.4583 29.0733 31.001 28.9215 31.4033 28.7396C31.8134 28.5541 32.0082 28.3687 32.0886 28.2293L33.4029 28.9888L30.0148 34.8543C29.3798 35.954 28.0323 37.3126 26.6326 38.3166C26.0071 38.7652 25.3427 39.1609 24.6967 39.4395L26.9145 40.7197L27.5716 41.098L27.1933 41.7566L26.7305 42.5592L30.7491 45.3702L40.1569 28.9073L40.6999 29.023L45.2362 29.9961C46.8445 30.3407 48.495 30.456 50.1359 30.3388L55.9954 29.9204C56.8327 29.8603 57.4818 29.1634 57.4818 28.3243ZM58.986 28.6284C58.8406 30.1263 57.6321 31.3272 56.1022 31.4365L50.2427 31.8548C48.4596 31.9821 46.6669 31.857 44.9187 31.4825L40.9253 30.6251L31.6569 46.8477L31.2431 47.5701L24.719 43.0071L25.4963 41.6543L22.0904 39.6873L22.6956 38.3047C22.9166 38.3733 23.312 38.3527 23.9002 38.1267C24.4656 37.9094 25.1055 37.5426 25.747 37.0824C27.0452 36.1512 28.2112 34.9422 28.7005 34.0948L30.755 30.5375C30.5258 30.5918 30.2889 30.6438 30.0445 30.6859C28.5606 30.9416 26.7096 31.0087 24.7843 30.9692C20.9256 30.8901 16.6267 30.3801 14.0443 29.9991C12.3887 29.7546 11.3057 28.2586 11.4647 26.6376C11.6436 24.8133 13.2924 23.5425 15.0708 23.6916C22.3925 24.3053 28.8372 23.3001 32.6953 21.7987C34.1235 21.2428 35.7811 20.9088 37.374 21.0896L37.5936 20.7158L38.2611 21.146L38.5341 21.324C38.982 21.4555 39.4224 21.6334 39.8425 21.8759L41.4401 22.7971C41.5571 22.8301 41.6738 22.8686 41.7887 22.9128L46.6439 24.7804C47.3739 25.061 48.1497 25.2046 48.9328 25.2046H55.8812C57.6037 25.2048 59.0006 26.6018 59.0008 28.3243L58.986 28.6284Z" fill="#0DCE91"/>
<path d="M36.6943 12.924C36.6943 9.98773 39.0746 7.60742 42.0109 7.60742C44.9472 7.60742 47.3275 9.98773 47.3275 12.924V15.962C47.3275 18.8983 44.9472 21.2786 42.0109 21.2786C39.0746 21.2786 36.6943 18.8983 36.6943 15.962V12.924Z" fill="#DEFFF0"/>
<path d="M45.8085 15.962V12.924C45.8085 10.8267 44.1082 9.12644 42.0109 9.12644C39.9136 9.12644 38.2134 10.8267 38.2134 12.924V15.962C38.2134 18.0594 39.9136 19.7596 42.0109 19.7596V21.2786C39.1662 21.2786 36.8438 19.0444 36.7018 16.235L36.6943 15.962V12.924C36.6943 9.98773 39.0746 7.60742 42.0109 7.60742C44.9472 7.60742 47.3275 9.98773 47.3275 12.924V15.962L47.3201 16.235C47.178 19.0444 44.8556 21.2786 42.0109 21.2786V19.7596C44.1082 19.7596 45.8085 18.0594 45.8085 15.962Z" fill="#0DCE91"/>
<path d="M33.3722 22.1158C34.8154 21.2646 36.6206 20.9934 38.0717 21.831L40.5608 23.2684C40.6832 23.2992 40.8057 23.3374 40.9272 23.3841L44.0795 24.5961V30.4125L40.8145 29.7138L30.9957 45.7125L25.1362 42.5454L25.9462 41.1406L21.3135 38.466C23.2004 39.0739 26.86 36.9807 27.9577 35.0794L32.0831 28.4885C31.546 29.2831 30.3698 29.7958 28.8893 30.1144V23.8395C30.7241 23.4194 32.1865 22.8151 33.3722 22.1158Z" fill="white"/>
<path d="M32.9872 21.4614C34.5793 20.5225 36.6878 20.1554 38.4521 21.1736L40.8597 22.5636C40.9726 22.5955 41.087 22.6311 41.2008 22.6748L44.3531 23.8868C44.6463 23.9996 44.8395 24.2818 44.8397 24.5959V30.4123C44.8397 30.6415 44.7359 30.8585 44.5578 31.0027C44.3796 31.1469 44.1456 31.2034 43.9214 31.1555L41.1801 30.5681L31.6432 46.1099C31.4323 46.4532 30.9905 46.5725 30.6359 46.3813L24.7764 43.2142C24.5961 43.1167 24.4615 42.9502 24.4056 42.7529C24.3498 42.5559 24.3762 42.3444 24.4783 42.1669L24.9085 41.4193L20.9344 39.1245C20.5982 38.9304 20.4627 38.5136 20.6199 38.1587C20.7774 37.8038 21.1774 37.6243 21.547 37.7434C21.8401 37.8378 22.2719 37.8443 22.8272 37.7197C23.3723 37.5973 23.9777 37.3615 24.5762 37.0432C25.7962 36.3943 26.8505 35.4802 27.3012 34.6994L27.3146 34.6772L29.8275 30.6601C29.5752 30.7316 29.3162 30.8001 29.0502 30.8574C28.8258 30.9056 28.5908 30.8502 28.4123 30.7061C28.2338 30.5619 28.1304 30.3436 28.1304 30.1142V23.8393C28.1306 23.4853 28.3757 23.1781 28.7208 23.0991C30.4852 22.6951 31.8738 22.118 32.9872 21.4614ZM37.6926 22.4894C36.5547 21.8327 35.0528 22.0065 33.7585 22.7698C32.6334 23.4334 31.2848 24.0064 29.6495 24.4327V29.1307C29.9686 29.0304 30.2561 28.9211 30.5069 28.7984C30.9829 28.5654 31.2861 28.3134 31.4548 28.0641C31.6867 27.721 32.1504 27.6263 32.4976 27.852C32.8449 28.0779 32.9474 28.5407 32.7276 28.8918L28.6022 35.4827L28.6007 35.4812C27.949 36.5934 26.6346 37.6682 25.2882 38.3842C24.8044 38.6415 24.2982 38.8586 23.7959 39.0221L26.3266 40.4833C26.6896 40.6929 26.8147 41.157 26.6055 41.5202L26.1842 42.2485L30.7249 44.7021L40.1684 29.3161L40.2381 29.2197C40.4171 29.0107 40.6987 28.9131 40.9739 28.9719L43.3207 29.4733V25.1165L40.655 24.093C40.564 24.058 40.4708 24.0293 40.3761 24.0055C40.3081 23.9883 40.2425 23.9619 40.1817 23.9268L37.6926 22.4894Z" fill="#0DCE91"/>
<path d="M7.74871 31.1932C9.05578 29.9627 11.0998 29.9793 12.3859 31.2318L19.5152 38.1756C19.5536 38.2131 19.5886 38.254 19.625 38.2928L23.5352 38.2409C24.8706 37.6638 26.4029 36.4606 27.493 35.2934L35.0762 39.2823L34.2292 40.7464C34.3512 40.9589 34.4579 41.1846 34.5407 41.4258L39.5295 55.9603C40.0514 57.4821 39.2685 59.1437 37.7627 59.7104C36.3234 60.2519 34.7085 59.6064 34.0379 58.2225L27.7927 45.3376L17.3657 44.541C16.5183 44.4761 15.7735 44.0734 15.2533 43.4744C15.0647 43.3498 14.8855 43.2042 14.7193 43.0383L7.67751 36.0054C6.33904 34.6684 6.37144 32.4902 7.74871 31.1932Z" fill="#70BEFF"/>
<path d="M7.53792 30.3747C9.13991 29.1391 11.4363 29.2473 12.9153 30.6877L19.9393 37.5292L23.3571 37.4832C24.5407 36.9388 25.9296 35.8544 26.9381 34.7745L27.3327 34.3517L36.1293 38.9785L35.0924 40.7675C35.153 40.8994 35.2095 41.037 35.2586 41.1799L40.2473 55.7144L40.3511 56.0734C40.7764 57.8794 39.8016 59.7544 38.0296 60.4213C36.2225 61.1011 34.1956 60.2905 33.3538 58.5537L27.2985 46.0604L17.3077 45.2979C16.288 45.2199 15.3914 44.7464 14.7503 44.0459C14.6648 43.9862 14.5783 43.9271 14.4966 43.8604L14.1822 43.5756L7.14036 36.5427C5.4986 34.9028 5.53873 32.231 7.22789 30.6402L7.53792 30.3747ZM11.8562 31.7765C10.8617 30.808 9.28047 30.7949 8.26925 31.7469L8.26776 31.7454C7.20292 32.7485 7.17865 34.4333 8.21288 35.4673L15.2561 42.5002C15.3212 42.5651 15.3885 42.626 15.4579 42.6826L15.6715 42.8399L15.7575 42.8977L15.8258 42.9763C16.2214 43.4319 16.7849 43.7345 17.4234 43.7833L27.8504 44.5799L28.285 44.614L28.4764 45.0056L34.7216 57.8906C35.2211 58.9212 36.4228 59.4028 37.4941 59.0002C38.6156 58.5781 39.1985 57.3401 38.8099 56.2069L33.8226 41.6724C33.7578 41.4836 33.6719 41.3019 33.5704 41.125L33.3524 40.7453L34.0214 39.5867L27.6397 36.2283C26.5439 37.3102 25.1303 38.3792 23.8362 38.9385L23.6968 38.9978L23.5455 39.0008L19.2985 39.0571L19.07 38.8124C19.0018 38.7395 19.0081 38.7425 18.9855 38.7204L11.8562 31.7765Z" fill="#2099FD"/>
<path d="M42.0099 7.60742C43.9314 7.60742 45.6151 8.62698 46.5492 10.1545C46.0283 11.7365 44.3455 13.4511 42.004 14.5795C40.1109 15.4918 38.1866 15.8266 36.6934 15.6164V12.924C36.6934 9.98792 39.0739 7.60772 42.0099 7.60742Z" fill="#78FABF"/>
<path d="M42.0099 7.60742C43.9314 7.60742 45.6151 8.62698 46.5492 10.1545C46.0283 11.7365 44.3455 13.4511 42.004 14.5795C40.1109 15.4918 38.1866 15.8266 36.6934 15.6164V12.924C36.6934 9.98792 39.0739 7.60772 42.0099 7.60742ZM38.2124 14.1226C39.1457 14.0331 40.2303 13.7483 41.3439 13.2118C43.0514 12.3889 44.2183 11.2862 44.7913 10.3399C44.0966 9.59237 43.1075 9.12644 42.0099 9.12644C39.9127 9.12674 38.2124 10.8271 38.2124 12.924V14.1226Z" fill="#0DCE91"/>
<path d="M17.6775 6.90242C17.258 6.17589 17.5069 5.24687 18.2335 4.8274C18.96 4.40794 19.889 4.65687 20.3085 5.3834L22.587 9.32993C23.0065 10.0565 22.7576 10.9855 22.031 11.405C21.3045 11.8244 20.3755 11.5755 19.956 10.849L17.6775 6.90242Z" fill="#0DCE91"/>
<path d="M27.8291 4.69871C27.8291 3.85978 28.5092 3.17969 29.3481 3.17969C30.1871 3.17969 30.8671 3.85978 30.8671 4.69871V9.25577C30.8671 10.0947 30.1871 10.7748 29.3481 10.7748C28.5092 10.7748 27.8291 10.0947 27.8291 9.25577V4.69871Z" fill="#0DCE91"/>
<path d="M11.045 14.0906C10.3185 13.6711 10.0695 12.7421 10.489 12.0155C10.9085 11.289 11.8375 11.0401 12.564 11.4595L16.5106 13.7381C17.2371 14.1575 17.486 15.0866 17.0666 15.8131C16.6471 16.5396 15.7181 16.7886 14.9915 16.3691L11.045 14.0906Z" fill="#0DCE91"/>
</svg>
