<svg width="70" height="60" viewBox="0 0 70 60" fill="none" xmlns="http://www.w3.org/2000/svg">
<path d="M8.34375 43C8.34375 34.7157 14.9102 28 23.0104 28H51.6771C59.7773 28 66.3438 34.7157 66.3438 43C66.3438 51.2843 59.7773 58 51.6771 58H23.0104C14.9102 58 8.34375 51.2843 8.34375 43Z" fill="#AFEFD1"/>
<path d="M45.1169 5.30664C50.9784 5.30681 55.7303 10.0585 55.7303 15.92V33.1668C55.7303 39.0283 50.9784 43.7801 45.1169 43.7802L22.0206 43.7802C21.2907 45.3628 21.1439 47.1609 21.6229 48.8511C21.7562 49.322 21.2477 49.7152 20.8254 49.4678L19.6743 48.7922C17.6 47.5753 15.8794 45.8474 14.6727 43.7802H12.6134C6.75178 43.7802 2 39.0284 2 33.1668L2 15.92C2 10.0584 6.75178 5.30664 12.6134 5.30664L45.1169 5.30664Z" fill="white"/>
<path d="M15.4345 42.4535L15.8187 43.1117C16.8513 44.8806 18.3003 46.3742 20.0423 47.4629C19.9401 46.0126 20.2026 44.5539 20.8157 43.2244L21.1714 42.4535L45.1169 42.4535V43.7802L22.0206 43.7802C21.2907 45.3628 21.1439 47.1609 21.6229 48.8511C21.7562 49.322 21.2477 49.7152 20.8254 49.4678L19.6743 48.7922C17.6 47.5753 15.8794 45.8474 14.6727 43.7802H12.6134V42.4535H15.4345ZM54.4037 33.1668V15.92C54.4037 10.8714 50.3747 6.76385 45.3566 6.63655L45.1169 6.63332L12.6134 6.63332C7.56462 6.63332 3.45705 10.6622 3.32991 15.6804L3.32668 15.92L3.32668 33.1668C3.32668 38.2957 7.48448 42.4535 12.6134 42.4535V43.7802C6.75178 43.7802 2 39.0284 2 33.1668L2 15.92C2 10.0584 6.75178 5.30664 12.6134 5.30664L45.1169 5.30664C50.9784 5.30681 55.7303 10.0585 55.7303 15.92V33.1668C55.7303 39.0283 50.9784 43.7801 45.1169 43.7802V42.4535C50.1656 42.4534 54.2733 38.4245 54.4004 33.4065L54.4037 33.1668Z" fill="#E9E9E9"/>
<path d="M36.6859 23C37.0492 23 37.3438 23.2239 37.3438 23.5C37.3438 23.7761 37.0492 24 36.6859 24H13.0016C12.6383 24 12.3438 23.7761 12.3438 23.5C12.3438 23.2239 12.6383 23 13.0016 23H36.6859Z" fill="#CCCCCC"/>
<path d="M36.6859 32C37.0492 32 37.3438 32.2239 37.3438 32.5C37.3438 32.7761 37.0492 33 36.6859 33H13.0016C12.6383 33 12.3438 32.7761 12.3438 32.5C12.3438 32.2239 12.6383 32 13.0016 32H36.6859Z" fill="#CCCCCC"/>
<path d="M29.6771 27C30.0453 27 30.3438 27.2239 30.3438 27.5C30.3438 27.7761 30.0453 28 29.6771 28H13.0104C12.6422 28 12.3438 27.7761 12.3438 27.5C12.3438 27.2239 12.6422 27 13.0104 27H29.6771Z" fill="#CCCCCC"/>
<path d="M36.6295 27C37.024 27 37.3438 27.2239 37.3438 27.5C37.3438 27.7761 37.024 28 36.6295 28H33.058C32.6635 28 32.3438 27.7761 32.3438 27.5C32.3438 27.2239 32.6635 27 33.058 27H36.6295Z" fill="#CCCCCC"/>
<path d="M52.8623 5.45801L54.8068 7.31416L43.0384 18.5477L41.0938 16.6915L52.8623 5.45801Z" fill="#F8F8F8"/>
<path d="M42.9271 16.625H44.2333L53.1937 8.07187L51.8875 6.825L42.9271 15.3781V16.625ZM42.0104 18.375C41.7507 18.375 41.533 18.2911 41.3573 18.1234C41.1816 17.9557 41.0938 17.7479 41.0938 17.5V15.3781C41.0938 15.1448 41.1396 14.9224 41.2313 14.7109C41.3229 14.4995 41.4528 14.3135 41.6208 14.1531L53.1937 3.12813C53.3771 2.96771 53.5795 2.84375 53.801 2.75625C54.0226 2.66875 54.2556 2.625 54.5 2.625C54.7444 2.625 54.9812 2.66875 55.2104 2.75625C55.4396 2.84375 55.6382 2.975 55.8062 3.15L57.0667 4.375C57.25 4.53542 57.3837 4.725 57.4677 4.94375C57.5517 5.1625 57.5938 5.38125 57.5938 5.6C57.5938 5.83333 57.5517 6.05573 57.4677 6.26719C57.3837 6.47865 57.25 6.67188 57.0667 6.84688L45.5167 17.8719C45.3486 18.0323 45.1538 18.1562 44.9323 18.2437C44.7108 18.3312 44.4778 18.375 44.2333 18.375H42.0104ZM52.5292 7.45937L51.8875 6.825L53.1937 8.07187L52.5292 7.45937Z" fill="#79E2C1"/>
</svg>
