<svg width="275" height="212" viewBox="0 0 275 212" fill="none" xmlns="http://www.w3.org/2000/svg">
<path d="M0.356445 160.03C0.356445 102.636 46.4962 56.1084 103.412 56.1084H171.853C228.769 56.1084 274.908 102.636 274.908 160.03V191.181C274.908 202.659 265.68 211.965 254.297 211.965H20.9676C9.58435 211.965 0.356445 202.659 0.356445 191.181V160.03Z" fill="#BCF2D9"/>
<path d="M269.852 187.669C264.419 188.001 264.57 179.228 265.324 174.8V173.762L272.116 174.592L274.586 180.819C275.272 182.964 275.286 187.337 269.852 187.669Z" fill="#1F2937"/>
<path d="M267.588 168.572C253.922 167.078 248.722 183.31 247.83 191.613H253.593C255.171 186.078 259.808 175.049 265.736 175.215C271.663 175.381 274.106 179.435 274.586 181.442C274.243 177.429 272.363 169.236 267.588 168.572Z" fill="#26A275"/>
<path d="M233.217 143.456C226.137 144.286 232.874 175.769 237.127 191.406H241.655C241.793 175.077 240.297 142.626 233.217 143.456Z" fill="#26A275"/>
<path d="M248.859 191.614H243.508C245.497 172.863 243.508 136.606 256.68 138.889C263.733 140.112 254.21 175.215 248.859 191.614Z" fill="#26A275"/>
<path d="M227.288 176.358C227.345 176.036 227.649 175.821 227.968 175.878C229.466 176.145 232.955 178.502 233.799 185.313C234.213 188.653 234.235 190.604 234.135 191.694C234.087 192.227 234.005 192.606 233.893 192.847C233.864 192.91 233.823 192.985 233.765 193.056C233.717 193.115 233.602 193.238 233.411 193.286C233.162 193.347 232.936 193.247 232.8 193.094C232.692 192.972 232.656 192.838 232.642 192.768C232.595 192.53 232.697 192.297 232.882 192.166C232.91 192.044 232.943 191.857 232.967 191.585C233.056 190.617 233.045 188.763 232.635 185.46C231.833 178.986 228.599 177.192 227.764 177.043C227.445 176.986 227.232 176.679 227.288 176.358ZM233.792 192.536C233.791 192.528 233.788 192.516 233.783 192.501C233.786 192.512 233.79 192.524 233.792 192.536Z" fill="#1F2937"/>
<path d="M261.168 161.828C261.112 161.507 260.808 161.292 260.489 161.348C257.816 161.819 250.927 166.234 249.25 179.641C248.42 186.277 248.38 190.117 248.576 192.23C248.672 193.273 248.83 193.947 249.011 194.333C249.057 194.433 249.115 194.535 249.189 194.625C249.253 194.702 249.382 194.835 249.586 194.885C249.845 194.948 250.081 194.847 250.227 194.683C250.345 194.551 250.388 194.401 250.407 194.308C250.468 194.005 250.286 193.709 249.996 193.624C249.912 193.352 249.813 192.878 249.743 192.12C249.559 190.132 249.589 186.389 250.414 179.789C252.048 166.726 258.675 162.868 260.691 162.513C261.01 162.457 261.224 162.15 261.168 161.828Z" fill="#1F2937"/>
<path d="M269.235 159.232C269.235 162.327 266.747 164.836 263.678 164.836C260.609 164.836 258.121 162.327 258.121 159.232C258.121 156.136 260.609 153.627 263.678 153.627C266.747 153.627 269.235 156.136 269.235 159.232Z" fill="#EA580C"/>
<path d="M230.13 172.932C230.13 176.027 227.642 178.536 224.573 178.536C221.504 178.536 219.016 176.027 219.016 172.932C219.016 169.836 221.504 167.327 224.573 167.327C227.642 167.327 230.13 169.836 230.13 172.932Z" fill="#EA580C"/>
<path d="M224.367 201.578C224.367 195.96 228.883 191.406 234.454 191.406H255.443C261.014 191.406 265.53 195.96 265.53 201.578C265.53 207.195 261.014 211.749 255.443 211.749H234.454C228.883 211.749 224.367 207.195 224.367 201.578Z" fill="#FB923C"/>
<path d="M190.018 182.939C185.078 179.341 176.434 168.201 183.02 165.295C189.113 162.606 191.115 175.881 190.018 182.939Z" fill="#339C73"/>
<path d="M192.487 182.524C192.693 178.234 194.175 170.028 198.456 171.522C202.737 173.017 196.261 179.479 192.487 182.524Z" fill="#339C73"/>
<path d="M188.431 177.277C188.69 177.081 189.057 177.133 189.252 177.395C189.689 177.983 189.988 178.768 190.198 179.607C190.41 180.453 190.541 181.399 190.617 182.341C190.77 184.224 190.707 186.147 190.602 187.35C190.573 187.675 190.289 187.915 189.966 187.887C189.644 187.858 189.405 187.571 189.433 187.246C189.534 186.096 189.594 184.242 189.448 182.437C189.375 181.535 189.252 180.659 189.061 179.896C188.868 179.125 188.617 178.512 188.314 178.104C188.119 177.843 188.172 177.472 188.431 177.277Z" fill="#1F2937"/>
<path d="M193.765 181.318C193.56 181.066 193.19 181.029 192.94 181.235C192.076 181.947 191.719 183.16 191.577 184.237C191.431 185.343 191.491 186.467 191.592 187.174C191.638 187.497 191.935 187.721 192.256 187.675C192.576 187.628 192.799 187.329 192.753 187.006C192.664 186.384 192.61 185.371 192.739 184.393C192.872 183.385 193.18 182.565 193.682 182.151C193.933 181.944 193.97 181.571 193.765 181.318Z" fill="#1F2937"/>
<path d="M205.042 187.298H177.669C176.914 195.532 173.964 212 192.282 212C205.783 212 206.414 195.532 205.042 187.298Z" fill="#EA580C"/>
<path d="M70.4033 170.403H159.517V182.352H70.4033V170.403Z" fill="#F67A38"/>
<path d="M87.4014 182.353L87.4014 211.965L78.6445 211.965L78.6446 182.353L87.4014 182.353Z" fill="#FFBEA6"/>
<path d="M87.4014 182.353L87.4014 185.47L78.6445 185.47L78.6445 182.353L87.4014 182.353Z" fill="#FFA36C"/>
<path d="M151.275 182.353L151.275 211.965L142.519 211.965L142.519 182.353L151.275 182.353Z" fill="#FFBEA6"/>
<path d="M151.275 182.353L151.275 185.47L142.519 185.47L142.519 182.353L151.275 182.353Z" fill="#FFA36C"/>
<path d="M108.028 158.075C116.067 153.008 119.147 157.395 119.683 160.223C116.714 161.577 113.724 168.543 112.601 171.857C110.942 171.375 105.852 170.666 98.7558 171.682C91.6598 172.698 90.0569 171.928 89.8883 170.048C89.4547 165.215 97.1968 162.945 99.8693 162.645C102.007 162.405 106.199 159.499 108.028 158.075Z" fill="#FBA388"/>
<path d="M91.7136 134.815H141.421C147.809 137.933 163.724 148.236 171.022 153.518C175.555 159.752 172.91 165.987 171.022 168.325C169.562 170.143 164.84 173.883 157.629 174.299C150.417 174.715 123.975 172.567 111.612 171.961C111.612 171.961 111.507 172.008 111.355 171.701C110.943 170.87 110.668 168.671 110.497 167.286C103.371 169.277 86.6987 173.468 77.0146 174.299C67.3306 175.13 61.819 168.584 60.2736 165.207C56.3588 157.103 62.935 150.401 66.7124 148.063L91.7136 134.815Z" fill="url(#paint0_linear_16765_49486)"/>
<path d="M95.2256 113.256C95.0195 124.685 82.6057 138.452 76.4244 143.907C73.3338 149.31 66.0364 154.298 62.774 156.116C61.8297 156.722 59.7862 157.675 59.1681 156.636C58.5501 155.597 59.2541 154.471 59.6834 154.038L57.3656 155.597C55.9234 156.22 55.0474 155.684 54.7897 155.337C53.5535 154.09 55.3048 152.22 56.3351 151.441L54.5321 151.96C52.8839 152.376 51.9566 151.787 51.699 151.441C50.6689 149.986 52.1282 148.93 52.9867 148.583L56.3351 147.284C54.2748 146.453 53.7597 143.821 53.7597 142.609C53.7597 138.453 57.3656 136.634 60.1986 135.855C62.465 135.232 65.607 134.037 66.8948 133.517C73.6942 129.361 78.8281 114.814 80.5451 108.061L95.2256 113.256ZM60.0759 140.494C59.5294 140.002 58.6809 140.15 58.1717 140.681C57.2021 141.692 57.4716 142.938 58.0238 143.9C58.3863 144.532 59.2339 144.528 59.7458 144.012C60.3208 143.432 60.8422 142.711 60.7637 141.894C60.7032 141.265 60.4192 140.804 60.0759 140.494Z" fill="#FFAD93"/>
<path d="M137.368 113.256C137.574 124.685 149.988 138.452 156.169 143.907C159.26 149.31 166.557 154.298 169.82 156.116C170.764 156.722 172.808 157.675 173.426 156.636C174.044 155.597 173.34 154.471 172.91 154.038L175.228 155.597C176.67 156.22 177.546 155.684 177.804 155.337C179.04 154.09 177.289 152.22 176.259 151.441L178.062 151.96C179.71 152.376 180.637 151.787 180.895 151.441C181.925 149.986 180.466 148.93 179.607 148.583L176.259 147.284C178.319 146.453 178.834 143.821 178.834 142.609C178.834 138.453 175.228 136.634 172.395 135.855C170.129 135.232 166.987 134.037 165.699 133.517C158.9 129.361 153.766 114.814 152.049 108.061L137.368 113.256ZM172.518 140.494C173.064 140.002 173.913 140.15 174.422 140.681C175.392 141.692 175.122 142.938 174.57 143.9C174.207 144.532 173.36 144.528 172.848 144.012C172.273 143.432 171.752 142.711 171.83 141.894C171.891 141.265 172.175 140.804 172.518 140.494Z" fill="#FFAD93"/>
<path d="M21.2693 27.1933C21.5929 26.2689 22.8893 26.2689 23.2129 27.1933L24.8324 31.8198C24.9361 32.1161 25.1672 32.3492 25.461 32.4538L30.0487 34.0873C30.9653 34.4137 30.9653 35.7208 30.0487 36.0472L25.461 37.6807C25.1672 37.7853 24.9361 38.0184 24.8324 38.3147L23.2129 42.9412C22.8893 43.8656 21.5929 43.8656 21.2693 42.9412L19.6499 38.3147C19.5462 38.0184 19.315 37.7853 19.0212 37.6807L14.4335 36.0472C13.5169 35.7208 13.5169 34.4137 14.4335 34.0873L19.0212 32.4538C19.315 32.3492 19.5462 32.1161 19.6499 31.8198L21.2693 27.1933Z" fill="#00BB86"/>
<path d="M243.364 43.8251C243.688 42.9007 244.984 42.9007 245.308 43.8251L247.868 51.1394C247.972 51.4357 248.203 51.6688 248.497 51.7734L255.749 54.3558C256.666 54.6822 256.666 55.9893 255.749 56.3157L248.497 58.898C248.203 59.0027 247.972 59.2357 247.868 59.5321L245.308 66.8463C244.984 67.7707 243.688 67.7707 243.364 66.8463L240.804 59.5321C240.7 59.2357 240.469 59.0027 240.175 58.898L232.923 56.3157C232.006 55.9893 232.006 54.6822 232.923 54.3558L240.175 51.7734C240.469 51.6688 240.7 51.4357 240.804 51.1394L243.364 43.8251Z" fill="#B6E2CA"/>
<path d="M202.334 22.08C202.334 23.3712 201.296 24.4179 200.016 24.4179C198.736 24.4179 197.698 23.3712 197.698 22.08C197.698 20.7889 198.736 19.7422 200.016 19.7422C201.296 19.7422 202.334 20.7889 202.334 22.08Z" fill="#70BEFF"/>
<path d="M191.002 11.4295C191.002 17.7418 185.928 22.859 179.669 22.859C173.411 22.859 168.337 17.7418 168.337 11.4295C168.337 5.11715 173.411 0 179.669 0C185.928 0 191.002 5.11715 191.002 11.4295Z" fill="#DEFFF0"/>
<path d="M188.941 11.4293C188.94 6.26451 184.789 2.07843 179.669 2.07843C174.549 2.07856 170.398 6.26459 170.398 11.4293C170.398 16.5942 174.549 20.7806 179.669 20.7808V22.8592L179.377 22.8551C173.253 22.6986 168.337 17.643 168.337 11.4293C168.337 5.11716 173.411 0.00012536 179.669 0C185.928 0 191.002 5.11708 191.002 11.4293L190.998 11.7247C190.843 17.9006 185.83 22.8592 179.669 22.8592V20.7808C184.789 20.7808 188.941 16.5942 188.941 11.4293Z" fill="#3396FF"/>
<path d="M178.762 3.84927C178.762 3.51021 179.034 3.23535 179.371 3.23535C179.707 3.23535 179.979 3.51021 179.979 3.84927V11.8986C179.979 12.2377 179.707 12.5125 179.371 12.5125C179.034 12.5125 178.762 12.2377 178.762 11.8986V3.84927Z" fill="#3396FF"/>
<path d="M182.731 8.37467C182.957 8.14887 183.321 8.15041 183.545 8.37811L183.575 8.4091C183.799 8.6368 183.798 9.00444 183.572 9.23024L180.228 12.5743C180.003 12.8001 179.638 12.7986 179.414 12.5709L179.384 12.5399C179.16 12.3122 179.162 11.9445 179.387 11.7187L182.731 8.37467Z" fill="#3396FF"/>
<path d="M180.652 12.1576C180.652 12.7587 180.169 13.2459 179.573 13.2459C178.977 13.2459 178.494 12.7587 178.494 12.1576C178.494 11.5566 178.977 11.0693 179.573 11.0693C180.169 11.0693 180.652 11.5566 180.652 12.1576Z" fill="#3396FF"/>
<path d="M95.1289 52.2079C95.1289 40.3026 104.7 30.6514 116.506 30.6514C128.312 30.6514 137.883 40.3025 137.883 52.2079V72.996C137.883 84.9013 128.312 94.5525 116.506 94.5525C104.7 94.5525 95.1289 84.9014 95.1289 72.996V52.2079Z" fill="#FFAD93"/>
<path d="M99.524 51.7545C107.46 48.4503 111.758 43.9715 112.915 40.5296C119.611 51.1133 125.689 49.4312 129.904 50.4638C134.12 51.4963 135.608 52.5289 135.608 56.9172C135.608 59.874 132.837 61.5638 131.514 61.8219C130.026 67.2428 127.298 69.3079 125.066 71.1149C123.281 72.5604 123 74.2986 123.083 74.987C122.884 76.4325 124.779 77.8265 125.689 78.3428C141.758 81.0274 148.294 94.0892 149.617 100.285C151.436 99.1659 155.023 95.3799 154.825 89.1846C154.577 81.4404 148.625 77.8265 146.889 75.2451C145.5 73.18 146.53 66.4748 145.923 63.6522C145.42 61.3139 145.15 59.7551 141.543 54.559C139.402 51.4757 137.678 49.6228 137.163 44.1669C135.617 35.0737 132.609 32.4541 128.146 29.0983C124.151 26.0949 117.987 24.9464 112.915 25.7208C94.3163 28.5603 93.2217 44.7477 94.1371 49.363C95.1676 54.559 90.4746 56.9172 88.7387 61.0475C87.0028 65.1777 89.3566 68.5335 87.6207 73.4381C85.8848 78.3428 79.6852 80.666 78.6932 88.152C77.8997 94.1408 81.1731 98.5636 82.909 100.026C87.4719 83.712 101.634 78.4288 107.834 77.8265C108.247 77.8265 108.6 77.3102 109.195 75.2451C109.791 73.18 108.121 71.6311 107.212 71.1149C102.847 68.6367 101.095 63.7149 100.764 61.5637C99.6067 61.3056 97.1433 60.0665 96.5482 57.1754C95.953 54.2842 98.2841 52.3568 99.524 51.7545Z" fill="#212B2D"/>
<path d="M125.263 77.9287C127.237 78.1885 132.474 79.3836 137.625 82.0851C142.776 84.7865 146.296 89.7908 147.412 91.9556C148.7 93.7737 153.593 106.759 153.851 107.281C154.057 107.697 153.937 107.974 153.851 108.061C151.379 109.723 143.034 112.044 139.171 112.997L141.746 135.076H90.8643L93.4397 112.997C89.5763 112.044 81.2317 109.723 78.7592 108.061C78.6734 107.974 78.5533 107.697 78.7592 107.281C79.0175 106.76 83.9106 93.7738 85.1982 91.9556C86.3144 89.7909 89.8342 84.7865 94.985 82.0851C100.136 79.3836 105.373 78.1885 107.348 77.9287C107.005 81.0385 108.32 87.2497 116.305 87.2791C124.29 87.2498 125.605 81.0385 125.263 77.9287Z" fill="#23BFAA"/>
<path d="M128.61 149.363C121.605 142.921 117.793 146.678 116.763 149.363C119.441 151.233 121.141 158.627 121.656 162.091C123.373 161.918 128.507 162.143 135.307 164.429C142.106 166.715 143.82 166.247 144.321 164.429C145.609 159.753 138.397 156.116 135.822 155.337C133.761 154.714 130.155 151.094 128.61 149.363Z" fill="#FFAD93"/>
<path d="M119.869 54.4743C120.195 54.1964 120.683 54.2375 120.959 54.5661C121.339 55.0197 122.075 55.5771 122.992 55.7368C123.862 55.8883 124.998 55.7006 126.281 54.4986C126.594 54.2057 127.083 54.2238 127.374 54.5392C127.664 54.8546 127.646 55.3474 127.334 55.6404C125.733 57.1397 124.121 57.5151 122.729 57.2728C121.384 57.0384 120.342 56.2449 119.778 55.5729C119.503 55.2442 119.544 54.7523 119.869 54.4743Z" fill="black"/>
<path d="M104.416 54.4743C104.742 54.1964 105.23 54.2375 105.506 54.5661C105.886 55.0197 106.622 55.5771 107.539 55.7368C108.409 55.8883 109.545 55.7006 110.828 54.4986C111.141 54.2057 111.63 54.2238 111.921 54.5392C112.211 54.8546 112.193 55.3474 111.88 55.6404C110.279 57.1397 108.668 57.5151 107.276 57.2728C105.93 57.0384 104.889 56.2449 104.325 55.5729C104.05 55.2442 104.091 54.7523 104.416 54.4743Z" fill="black"/>
<path d="M31.0883 132.22C27.8472 121.209 21.3226 117.154 16.9806 116.133C15.5356 115.794 14.1316 116.659 13.6114 118.06C8.75257 131.148 20.5774 146.61 27.4825 153.001C32.8396 146.351 32.1185 136.376 31.0883 132.22Z" fill="#00BB86"/>
<path d="M18.7256 150.663C12.4203 144.086 6.25637 142.918 2.40717 143.81C0.96119 144.145 0.178989 145.62 0.386677 147.101C2.37888 161.313 17.806 172.573 26.9617 174.628C28.3044 166.167 23.104 154.819 18.7256 150.663Z" fill="#00BB86"/>
<path d="M19.6746 123.164C19.9397 122.975 20.3063 123.039 20.4933 123.307C22.6004 126.317 26.8968 136.058 28.0177 151.694L28.0685 152.443L28.069 152.451L28.0695 152.459C28.3274 159.308 28.3812 175.844 26.5167 187.127C26.4633 187.45 26.1604 187.668 25.8404 187.614C25.5204 187.56 25.3045 187.255 25.3578 186.932C27.2005 175.781 27.1528 159.361 26.8961 152.52C25.8706 136.592 21.5136 126.819 19.5332 123.99C19.3462 123.722 19.4096 123.353 19.6746 123.164Z" fill="black"/>
<path d="M12.5439 188.069C12.5439 185.773 14.3895 183.912 16.6662 183.912H36.7526C39.0292 183.912 40.8748 185.773 40.8748 188.069V197.682C40.8748 205.571 34.5327 211.966 26.7094 211.966C18.886 211.966 12.5439 205.571 12.5439 197.682V188.069Z" fill="#F67A38"/>
<path d="M10.8981 152.736C11.0432 152.443 11.3959 152.325 11.6861 152.471C14.6347 153.958 18.1121 157.286 21.1262 161.175C24.147 165.074 26.7676 169.621 27.9546 173.611C28.0477 173.925 27.8712 174.255 27.5606 174.349C27.2499 174.443 26.9222 174.265 26.829 173.952C25.698 170.15 23.1675 165.734 20.2003 161.905C17.2262 158.067 13.8783 154.901 11.1608 153.53C10.8706 153.384 10.753 153.028 10.8981 152.736Z" fill="black"/>
<defs>
<linearGradient id="paint0_linear_16765_49486" x1="116.298" y1="134.815" x2="116.298" y2="174.371" gradientUnits="userSpaceOnUse">
<stop stop-color="#3396FF"/>
<stop offset="1" stop-color="#3988DD"/>
</linearGradient>
</defs>
</svg>
