<svg width="533" height="408" viewBox="0 0 533 408" fill="none" xmlns="http://www.w3.org/2000/svg">
<path d="M0 307.982C0 197.525 89.5431 107.982 200 107.982H332.822C443.278 107.982 532.822 197.525 532.822 307.982V367.933C532.822 390.024 514.913 407.933 492.822 407.933H39.9999C17.9086 407.933 0 390.024 0 367.933V307.982Z" fill="#BCF2D9"/>
<path d="M523.01 361.177C512.465 361.816 512.758 344.931 514.222 336.409V334.411L527.403 336.009L532.196 347.994C533.528 352.122 533.554 360.538 523.01 361.177Z" fill="#1F2937"/>
<path d="M518.616 324.423C492.094 321.547 482.002 352.787 480.271 368.766H491.455C494.517 358.113 503.518 336.887 515.021 337.207C526.524 337.526 531.264 345.33 532.196 349.191C531.53 341.468 527.882 325.701 518.616 324.423Z" fill="#26A275"/>
<path d="M451.913 276.086C438.172 277.684 451.247 338.273 459.502 368.367H468.289C468.555 336.941 465.653 274.488 451.913 276.086Z" fill="#26A275"/>
<path d="M482.269 368.767H471.884C475.745 332.68 471.884 262.902 497.447 267.297C511.134 269.65 492.654 337.207 482.269 368.767Z" fill="#26A275"/>
<path d="M441.528 339.604C443.791 340.004 450.315 343.999 451.913 356.782C453.51 369.566 452.046 371.43 451.913 370.765" stroke="#1F2937" stroke-width="2.27613" stroke-linecap="round"/>
<path d="M505.036 311.64C500.485 312.436 487.369 320.396 484.157 345.867C480.945 371.339 483.889 375.054 484.157 373.727" stroke="#1F2937" stroke-width="2.27613" stroke-linecap="round"/>
<ellipse cx="511.027" cy="306.446" rx="10.7843" ry="10.7862" fill="#EA580C"/>
<ellipse cx="435.137" cy="332.813" rx="10.7843" ry="10.7862" fill="#EA580C"/>
<rect x="434.738" y="368.367" width="79.884" height="39.1498" rx="19.5749" fill="#FB923C"/>
<path d="M368.076 352.072C358.49 345.147 341.714 323.708 354.496 318.115C366.319 312.941 370.206 338.489 368.076 352.072Z" fill="#339C73"/>
<path d="M372.869 351.272C373.269 343.016 376.144 327.223 384.452 330.099C392.76 332.976 380.192 345.413 372.869 351.272Z" fill="#339C73"/>
<path d="M368.076 360.46C368.475 355.933 368.555 345.919 365.679 342.084" stroke="#1F2937" stroke-width="2.27613" stroke-linecap="round"/>
<path d="M372.257 360.061C371.888 357.502 371.815 351.842 374.466 349.675" stroke="#1F2937" stroke-width="2.27613" stroke-linecap="round"/>
<path d="M397.233 360.461H344.111C342.646 376.307 336.921 408 372.469 408C398.671 408 399.896 376.307 397.233 360.461Z" fill="#EA580C"/>
<rect x="135.94" y="327.945" width="172.942" height="22.9962" fill="#F67A38"/>
<rect x="168.93" y="350.941" width="56.9905" height="16.9943" transform="rotate(90 168.93 350.941)" fill="#FFBEA6"/>
<rect x="168.93" y="350.941" width="5.99901" height="16.9943" transform="rotate(90 168.93 350.941)" fill="#FFA36C"/>
<rect x="292.888" y="350.941" width="56.9905" height="16.9943" transform="rotate(90 292.888 350.941)" fill="#FFBEA6"/>
<rect x="292.888" y="350.941" width="5.99901" height="16.9943" transform="rotate(90 292.888 350.941)" fill="#FFA36C"/>
<path d="M208.958 304.22C224.56 294.468 230.537 302.912 231.576 308.353C225.815 310.96 220.013 324.366 217.831 330.743C214.613 329.816 204.734 328.451 190.963 330.407C177.192 332.363 174.081 330.879 173.754 327.262C172.912 317.961 187.938 313.592 193.124 313.015C197.273 312.554 205.409 306.96 208.958 304.22Z" fill="#FBA388"/>
<path d="M177.297 259.457H273.765C286.16 265.456 317.048 285.286 331.21 295.451C340.007 307.449 334.875 319.447 331.21 323.946C328.377 327.446 319.214 334.645 305.218 335.444C291.223 336.244 239.906 332.112 215.914 330.945C215.914 330.945 215.71 331.036 215.414 330.445C214.615 328.846 214.082 324.613 213.749 321.947C199.92 325.779 167.565 333.845 148.771 335.444C129.977 337.044 119.281 324.446 116.282 317.947C108.684 302.35 121.447 289.452 128.777 284.953L177.297 259.457Z" fill="url(#paint0_linear_16765_49430)"/>
<path d="M184.112 217.964C183.712 239.96 159.621 266.456 147.625 276.954C141.627 287.352 127.465 296.951 121.134 300.45C119.301 301.617 115.335 303.45 114.136 301.45C112.936 299.451 114.303 297.284 115.136 296.451L110.638 299.45C107.839 300.65 106.139 299.618 105.639 298.951C103.24 296.552 106.638 292.952 108.638 291.452L105.139 292.452C101.94 293.252 100.141 292.119 99.6406 291.452C97.6414 288.653 100.473 286.62 102.14 285.953L108.638 283.453C104.639 281.853 103.64 276.788 103.64 274.455C103.64 266.456 110.638 262.957 116.136 261.457C120.534 260.257 126.632 257.958 129.131 256.958C142.326 248.959 152.29 220.964 155.622 207.966L184.112 217.964ZM115.897 270.386C114.837 269.439 113.19 269.722 112.202 270.744C110.32 272.691 110.843 275.088 111.915 276.94C112.618 278.157 114.264 278.149 115.257 277.155C116.373 276.039 117.385 274.651 117.232 273.08C117.115 271.869 116.564 270.981 115.897 270.386Z" fill="#FFAD93"/>
<path d="M265.898 217.964C266.298 239.96 290.39 266.456 302.386 276.954C308.384 287.352 322.546 296.951 328.877 300.45C330.71 301.617 334.675 303.45 335.875 301.45C337.074 299.451 335.708 297.284 334.875 296.451L339.373 299.45C342.172 300.65 343.872 299.618 344.372 298.951C346.771 296.552 343.372 292.952 341.373 291.452L344.872 292.452C348.071 293.252 349.87 292.119 350.37 291.452C352.369 288.653 349.537 286.62 347.871 285.953L341.373 283.453C345.371 281.853 346.371 276.788 346.371 274.455C346.371 266.456 339.373 262.957 333.875 261.457C329.477 260.257 323.379 257.958 320.88 256.958C307.684 248.959 297.721 220.964 294.389 207.966L265.898 217.964ZM334.113 270.386C335.174 269.439 336.82 269.722 337.809 270.744C339.69 272.691 339.167 275.088 338.096 276.94C337.392 278.157 335.747 278.149 334.754 277.155C333.638 276.039 332.626 274.651 332.778 273.08C332.896 271.869 333.447 270.981 334.113 270.386Z" fill="#FFAD93"/>
<path d="M40.5857 52.3352C41.2137 50.5561 43.7296 50.5561 44.3576 52.3352L47.5005 61.239C47.7018 61.8093 48.1503 62.2578 48.7205 62.4592L57.6238 65.6029C59.4026 66.231 59.4026 68.7466 57.6238 69.3747L48.7205 72.5184C48.1503 72.7198 47.7018 73.1683 47.5005 73.7386L44.3576 82.6424C43.7296 84.4215 41.2137 84.4215 40.5857 82.6424L37.4428 73.7386C37.2415 73.1683 36.793 72.7198 36.2228 72.5184L27.3195 69.3747C25.5407 68.7466 25.5407 66.231 27.3195 65.6029L36.2228 62.4592C36.793 62.2578 37.2415 61.8093 37.4428 61.239L40.5857 52.3352Z" fill="#00BB86"/>
<path d="M471.605 84.343C472.233 82.5639 474.749 82.5639 475.377 84.343L480.345 98.4195C480.547 98.9897 480.995 99.4383 481.566 99.6397L495.641 104.61C497.419 105.238 497.419 107.753 495.641 108.381L481.565 113.351C480.995 113.553 480.547 114.001 480.345 114.571L475.377 128.648C474.749 130.427 472.233 130.427 471.605 128.648L466.636 114.571C466.435 114.001 465.986 113.553 465.416 113.351L451.341 108.381C449.562 107.753 449.562 105.238 451.341 104.61L465.416 99.6397C465.986 99.4383 466.435 98.9897 466.636 98.4195L471.605 84.343Z" fill="#B6E2CA"/>
<ellipse cx="387.479" cy="42.4934" rx="4.49849" ry="4.49925" fill="#70BEFF"/>
<path d="M347.992 2C359.034 2 367.985 10.9521 367.985 21.9961C367.985 33.0402 359.034 41.9932 347.992 41.9932C336.951 41.9929 328 33.0401 328 21.9961C328 10.9522 336.951 2.00024 347.992 2Z" fill="#DEFFF0" stroke="#3396FF" stroke-width="3.99958"/>
<rect x="346.231" y="6.22559" width="2.363" height="17.8542" rx="1.1815" fill="#3396FF"/>
<rect width="2.3187" height="11.3739" rx="1.11735" transform="matrix(0.704074 0.710127 -0.710008 0.704194 354.728 15.3291)" fill="#3396FF"/>
<ellipse cx="2.09406" cy="2.09442" rx="2.09406" ry="2.09442" transform="matrix(1 9.62919e-07 9.62593e-07 1 345.712 21.3018)" fill="#3396FF"/>
<rect x="183.925" y="58.9902" width="82.9722" height="122.98" rx="41.4861" fill="#FFAD93"/>
<path d="M192.454 99.6026C207.854 93.2437 216.196 84.6241 218.442 78.0001C231.436 98.3687 243.231 95.1315 251.413 97.1187C259.594 99.1058 262.482 101.093 262.482 109.539C262.482 115.229 257.104 118.481 254.537 118.978C251.649 129.41 246.355 133.385 242.024 136.862C238.559 139.644 238.013 142.989 238.174 144.314C237.789 147.096 241.467 149.779 243.231 150.773C274.417 155.939 287.102 181.077 289.669 193C293.198 190.847 300.161 183.561 299.776 171.638C299.294 156.734 287.744 149.779 284.375 144.811C281.68 140.837 283.677 127.932 282.499 122.5C281.524 118 280.999 115 273.999 105C269.846 99.0662 266.499 95.5001 265.499 85.0001C262.499 67.5001 256.662 62.4585 247.999 56.0001C240.247 50.2201 228.286 48.0097 218.442 49.5001C182.347 54.9649 180.223 86.1179 181.999 95.0001C183.999 105 174.892 109.539 171.523 117.487C168.154 125.436 172.722 131.894 169.353 141.333C165.984 150.773 153.953 155.244 152.028 169.651C150.488 181.176 156.84 189.688 160.209 192.503C169.064 161.106 196.549 150.938 208.58 149.779C209.382 149.779 210.068 148.785 211.223 144.811C212.378 140.837 209.138 137.856 207.373 136.862C198.903 132.093 195.502 122.621 194.86 118.481C192.614 117.984 187.834 115.599 186.679 110.035C185.524 104.471 190.048 100.762 192.454 99.6026Z" fill="#212B2D"/>
<path d="M242.405 149.976C246.237 150.476 256.401 152.775 266.397 157.975C276.394 163.174 283.224 172.805 285.391 176.971C287.889 180.47 297.385 205.46 297.887 206.466C298.287 207.266 298.053 207.799 297.887 207.966C293.088 211.165 276.894 215.632 269.396 217.465L274.395 259.957H175.648L180.646 217.465C173.149 215.632 156.955 211.165 152.156 207.966C151.99 207.799 151.757 207.265 152.156 206.466C152.657 205.462 162.153 180.47 164.652 176.971C166.818 172.805 173.649 163.174 183.646 157.975C193.642 152.776 203.805 150.476 207.638 149.976C206.973 155.96 209.525 167.914 225.021 167.971C240.518 167.914 243.07 155.96 242.405 149.976Z" fill="#23BFAA"/>
<path d="M248.902 287.452C235.307 275.054 227.909 282.286 225.91 287.452C231.108 291.051 234.407 305.282 235.407 311.948C238.739 311.615 248.703 312.048 261.898 316.447C275.094 320.846 278.42 319.947 279.392 316.447C281.891 307.449 267.896 300.45 262.898 298.95C258.899 297.75 251.901 290.785 248.902 287.452Z" fill="#FFAD93"/>
<path d="M232.908 105.982C234.741 108.149 239.806 111.182 245.404 105.982" stroke="black" stroke-width="3" stroke-linecap="round"/>
<path d="M202.918 105.982C204.751 108.149 209.816 111.182 215.414 105.982" stroke="black" stroke-width="3" stroke-linecap="round"/>
<path d="M59.6428 254.461C53.3528 233.27 40.6907 225.466 32.2641 223.502C29.4597 222.848 26.7351 224.513 25.7255 227.21C16.296 252.399 39.2444 282.155 52.6451 294.454C63.0416 281.656 61.6421 262.46 59.6428 254.461Z" fill="#00BB86"/>
<path d="M35.6507 289.955C23.414 277.298 11.4517 275.049 3.98161 276.766C1.17541 277.411 -0.342605 280.249 0.060454 283.1C3.92671 310.45 33.8661 332.122 51.6344 336.075C54.2402 319.793 44.1478 297.954 35.6507 289.955Z" fill="#00BB86"/>
<path d="M38.1494 237.964C42.1481 243.63 50.6452 262.66 52.6446 293.455C53.1444 306.619 53.2444 338.347 49.6456 359.944" stroke="black" stroke-width="2.28" stroke-linecap="round"/>
<path d="M23.6543 361.944C23.6543 357.526 27.236 353.944 31.6543 353.944H70.6359C75.0542 353.944 78.6359 357.526 78.6359 361.944V380.445C78.6359 395.627 66.3278 407.935 51.1451 407.935C35.9623 407.935 23.6543 395.627 23.6543 380.445V361.944Z" fill="#F67A38"/>
<path d="M21.4795 294.454C32.4758 299.953 47.9706 319.45 52.4691 334.447" stroke="black" stroke-width="2.28" stroke-linecap="round"/>
<defs>
<linearGradient id="paint0_linear_16765_49430" x1="225.008" y1="259.457" x2="225.008" y2="335.583" gradientUnits="userSpaceOnUse">
<stop stop-color="#3396FF"/>
<stop offset="1" stop-color="#3988DD"/>
</linearGradient>
</defs>
</svg>
