<svg width="70" height="57" viewBox="0 0 70 57" fill="none" xmlns="http://www.w3.org/2000/svg">
<path d="M11.7061 35.3535C11.7061 27.4915 18.0794 21.1182 25.9413 21.1182H53.7649C61.6268 21.1182 68.0002 27.4915 68.0002 35.3535C68.0002 43.2154 61.6268 49.5888 53.7649 49.5888H25.9413C18.0794 49.5888 11.7061 43.2154 11.7061 35.3535Z" fill="#AFEFD1"/>
<path d="M44.0588 0.412109C49.7765 0.412273 54.4118 5.04738 54.4118 10.765V27.5886C54.4118 33.3062 49.7765 37.9414 44.0588 37.9415H41.99C41.278 39.4853 41.1348 41.2393 41.602 42.888C41.732 43.3473 41.236 43.7309 40.8242 43.4895L39.7013 42.8305C37.6779 41.6434 35.9995 39.958 34.8224 37.9415L12.3529 37.9415C6.63517 37.9415 2 33.3064 2 27.5886L2 10.765C2 5.04728 6.63517 0.412109 12.3529 0.412109L44.0588 0.412109Z" fill="white"/>
<path d="M35.5655 36.6474L35.9403 37.2894C36.9475 39.0149 38.361 40.4719 40.0602 41.5338C39.9605 40.1191 40.2166 38.6962 40.8147 37.3994L41.1616 36.6474H44.0588V37.9415H41.99C41.278 39.4853 41.1348 41.2393 41.602 42.888C41.732 43.3473 41.236 43.7309 40.8242 43.4895L39.7013 42.8305C37.6779 41.6434 35.9995 39.958 34.8224 37.9415L12.3529 37.9415V36.6474L35.5655 36.6474ZM53.1176 27.5886V10.765C53.1176 5.84032 49.1875 1.83356 44.2926 1.70939L44.0588 1.70623L12.3529 1.70623C7.42806 1.70623 3.42129 5.63626 3.29728 10.5312L3.29412 10.765L3.29412 27.5886C3.29412 32.5916 7.34989 36.6474 12.3529 36.6474V37.9415C6.63517 37.9415 2 33.3064 2 27.5886L2 10.765C2 5.04728 6.63517 0.412109 12.3529 0.412109L44.0588 0.412109C49.7765 0.412273 54.4118 5.04738 54.4118 10.765V27.5886C54.4118 33.3062 49.7765 37.9414 44.0588 37.9415V36.6474C48.9836 36.6472 52.9905 32.7172 53.1145 27.8224L53.1176 27.5886Z" fill="#E9E9E9"/>
<rect width="28.4219" height="28.4219" transform="translate(14.3965 6.09766)" fill="white"/>
<path d="M40.568 16.8743C40.4496 12.8479 37.2521 9.65039 33.2257 9.65039C31.923 9.65039 29.9098 10.5978 29.0808 12.1373C28.9624 12.4926 28.4887 12.4926 28.3703 12.1373C27.4229 10.7162 25.5281 9.76882 24.107 9.76882C20.199 9.76882 16.8831 12.9663 16.7646 16.8743V17.1111C16.7646 19.1244 17.5936 21.0191 19.0147 22.4402C19.0147 22.4402 19.0147 22.4402 19.0147 22.5587C19.1331 22.6771 24.8175 27.6509 27.4229 29.901C28.1334 30.4931 29.1992 30.4931 29.9098 29.901C32.5151 27.6509 38.0811 22.6771 38.3179 22.5587C38.3179 22.5587 38.3179 22.5587 38.3179 22.4402C39.739 21.1376 40.568 19.2428 40.568 17.1111V16.8743Z" fill="#E3FBF1"/>
<path d="M39.2739 16.9001C39.1693 13.5573 36.5262 10.9445 33.2254 10.9445C32.8465 10.9446 32.2338 11.0967 31.6059 11.4469C31.0055 11.7817 30.5193 12.2266 30.2473 12.7024C29.6804 14.002 27.8582 14.0286 27.2401 12.7821C26.9046 12.3109 26.3945 11.8781 25.8026 11.5593C25.1738 11.2208 24.5552 11.0627 24.1072 11.0627C20.8982 11.0627 18.1621 13.7026 18.0588 16.902V17.1112C18.0588 18.7623 18.7378 20.3329 19.9298 21.5249L20.3089 21.9041V21.9767C20.4541 22.1046 20.6398 22.2689 20.8656 22.4671C21.455 22.9844 22.2576 23.6869 23.1379 24.4563C24.8913 25.9887 26.9506 27.7833 28.2512 28.9067C28.4818 29.0989 28.8508 29.0989 29.0815 28.9067C30.3784 27.7862 32.403 25.9957 34.1461 24.4594C35.0192 23.6899 35.822 22.984 36.4215 22.4627C36.6525 22.2618 36.8566 22.087 37.0237 21.9445V21.8712L37.4433 21.4864C38.5812 20.4433 39.2739 18.902 39.2739 17.1112V16.9001ZM40.5585 17.508C40.4622 19.4773 39.6501 21.2193 38.3178 22.4405V22.5587C38.0805 22.6776 32.5151 27.6514 29.9099 29.9013L29.7728 30.0049C29.1145 30.4585 28.2181 30.4585 27.5599 30.0049L27.4228 29.9013C24.818 27.6517 19.1355 22.6791 19.0148 22.5587V22.4405C17.6825 21.1083 16.8704 19.3594 16.7741 17.4871L16.7646 17.1112V16.8742C16.8831 12.9662 20.1993 9.76855 24.1072 9.76855L24.2418 9.77171C25.6458 9.82875 27.4522 10.7609 28.37 12.1375C28.4811 12.4705 28.9043 12.491 29.0543 12.1994L29.0808 12.1375C29.9098 10.5981 31.9227 9.65048 33.2254 9.65039C37.2518 9.65039 40.4495 12.8478 40.568 16.8742V17.1112L40.5585 17.508Z" fill="#79E2C1"/>
</svg>
