<svg width="96" height="24" viewBox="0 0 96 24" fill="none" xmlns="http://www.w3.org/2000/svg">
<path d="M74.7441 13.1202C74.3521 13.1202 74.1561 12.9335 74.1561 12.5602V6.17617C74.1561 5.80284 74.3521 5.61617 74.7441 5.61617H79.6441V3.99217H74.6881C74.2961 3.99217 74.1001 3.80551 74.1001 3.43217V1.41617C74.1001 1.04284 74.2961 0.856173 74.6881 0.856173H83.7041C84.0961 0.856173 84.2921 1.04284 84.2921 1.41617V7.71617C84.2921 8.08951 84.0961 8.27617 83.7041 8.27617H78.7481V9.98417H80.1761C81.5014 9.98417 82.5841 9.94684 83.4241 9.87217C84.2828 9.79751 85.0668 9.64817 85.7761 9.42417V1.24817C85.7761 0.856173 85.9628 0.660172 86.3361 0.660172H89.5561C89.9294 0.660172 90.1161 0.856173 90.1161 1.24817V4.80417H91.6281V1.16417C91.6281 0.772172 91.8148 0.576172 92.1881 0.576172H95.4361C95.8094 0.576172 95.9961 0.772172 95.9961 1.16417V12.7842C95.9961 13.1575 95.8094 13.3442 95.4361 13.3442H92.1881C91.8148 13.3442 91.6281 13.1575 91.6281 12.7842V9.00417H90.1161V12.6442C90.1161 13.0175 89.9294 13.2042 89.5561 13.2042H86.3361C85.9628 13.2042 85.7761 13.0175 85.7761 12.6442V12.3082C85.1414 12.5695 84.3294 12.7748 83.3401 12.9242C82.3508 13.0548 81.1094 13.1202 79.6161 13.1202H74.7441ZM74.9681 15.4162C74.9681 15.0242 75.1548 14.8282 75.5281 14.8282H95.4081C95.8001 14.8282 95.9961 15.0148 95.9961 15.3882V22.7242C95.9961 23.0975 95.8001 23.2842 95.4081 23.2842H75.5561C75.1641 23.2842 74.9681 23.0975 74.9681 22.7242V15.4162ZM80.2601 17.9642V20.1762H90.6761V17.9642H80.2601Z" fill="#00BB86"/>
<path d="M50.8097 23.2842C50.4364 23.2842 50.2497 23.0975 50.2497 22.7242V17.4602C50.2497 17.0682 50.4364 16.8722 50.8097 16.8722H65.0897V15.6962H50.8097C50.4364 15.6962 50.2497 15.5095 50.2497 15.1362V13.4002C50.2497 13.0268 50.4364 12.8402 50.8097 12.8402H70.0457C70.4191 12.8402 70.6057 13.0268 70.6057 13.4002V18.5802C70.6057 18.9535 70.4191 19.1402 70.0457 19.1402H55.7937V20.4002H70.2977C70.6711 20.4002 70.8577 20.5868 70.8577 20.9602V22.7242C70.8577 23.0975 70.6711 23.2842 70.2977 23.2842H50.8097ZM54.2537 5.16817C54.6644 5.16817 54.8604 5.36417 54.8417 5.75617L54.5897 7.43617H57.0257C58.5937 7.43617 60.1151 7.36151 61.5897 7.21217C63.0831 7.06284 64.3617 6.78284 65.4257 6.37217V1.16417C65.4257 0.772172 65.6217 0.576172 66.0137 0.576172H70.0177C70.4097 0.576172 70.6057 0.772172 70.6057 1.16417V3.51617H71.9217C72.2951 3.51617 72.4817 3.71217 72.4817 4.10417V7.40817C72.4817 7.78151 72.2951 7.96817 71.9217 7.96817H70.6057V10.8522C70.6057 11.2255 70.4097 11.4122 70.0177 11.4122H66.0137C65.6217 11.4122 65.4257 11.2255 65.4257 10.8522V9.56417C64.4924 10.0122 63.2417 10.3575 61.6737 10.6002C60.1244 10.8242 58.3884 10.9362 56.4657 10.9362H50.0257C49.839 10.9362 49.6897 10.8895 49.5777 10.7962C49.4657 10.7028 49.4191 10.5535 49.4377 10.3482L50.1097 5.70017C50.147 5.34551 50.343 5.16817 50.6977 5.16817H54.2537ZM49.1577 1.41617C49.1577 1.04284 49.3537 0.856173 49.7457 0.856173H62.7377C63.1297 0.856173 63.3257 1.04284 63.3257 1.41617V3.76817C63.3257 4.14151 63.1297 4.32817 62.7377 4.32817H49.7457C49.3537 4.32817 49.1577 4.14151 49.1577 3.76817V1.41617Z" fill="#00BB86"/>
<path d="M29.479 6.14817C29.871 6.14817 30.067 6.33484 30.067 6.70817V15.2482C30.067 16.6482 30.207 17.6375 30.487 18.2162C30.7857 18.7762 31.271 19.0562 31.943 19.0562C32.6337 19.0562 33.119 18.7762 33.399 18.2162C33.6977 17.6375 33.847 16.6482 33.847 15.2482V10.0962C33.847 9.29351 33.7817 8.59351 33.651 7.99617C33.539 7.38017 33.3337 6.87617 33.035 6.48417C32.755 6.07351 32.363 5.77484 31.859 5.58817C31.355 5.38284 30.7297 5.28017 29.983 5.28017H24.859C24.467 5.28017 24.271 5.09351 24.271 4.72017V1.66817C24.271 1.29484 24.467 1.10817 24.859 1.10817H29.843C33.0537 1.10817 35.387 1.83617 36.843 3.29217C38.3177 4.72951 39.055 7.05351 39.055 10.2642V15.0522C39.055 16.6388 38.887 17.9642 38.551 19.0282C38.215 20.0735 37.739 20.9135 37.123 21.5482C36.507 22.1828 35.7603 22.6308 34.883 22.8922C34.0057 23.1535 33.0257 23.2842 31.943 23.2842C30.879 23.2842 29.9083 23.1535 29.031 22.8922C28.1537 22.6308 27.407 22.1828 26.791 21.5482C26.175 20.9135 25.699 20.0735 25.363 19.0282C25.027 17.9642 24.859 16.6388 24.859 15.0522V6.70817C24.859 6.33484 25.0457 6.14817 25.419 6.14817H29.479ZM41.799 23.4242C41.4257 23.4242 41.239 23.2375 41.239 22.8642V1.16417C41.239 0.772172 41.4257 0.576172 41.799 0.576172H45.859C46.2323 0.576172 46.419 0.772172 46.419 1.16417V22.8642C46.419 23.2375 46.2323 23.4242 45.859 23.4242H41.799Z" fill="#00BB86"/>
<path d="M16.576 11.4122C16.184 11.4122 15.988 11.2255 15.988 10.8522V1.16417C15.988 0.772172 16.184 0.576172 16.576 0.576172H20.58C20.972 0.576172 21.168 0.772172 21.168 1.16417V3.51617H22.484C22.8573 3.51617 23.044 3.71217 23.044 4.10417V7.40817C23.044 7.78151 22.8573 7.96817 22.484 7.96817H21.168V10.8522C21.168 11.2255 20.972 11.4122 20.58 11.4122H16.576ZM0.98 11.4402C0.606667 11.4775 0.42 11.2908 0.42 10.8802V8.22017C0.42 7.84684 0.606667 7.66017 0.98 7.66017C1.932 7.62284 2.828 7.52951 3.668 7.38017C4.52667 7.23084 5.28267 7.02551 5.936 6.76417C6.608 6.48417 7.168 6.16684 7.616 5.81217C8.064 5.43884 8.372 5.01884 8.54 4.55217H0.56C0.186667 4.55217 0 4.36551 0 3.99217V1.41617C0 1.04284 0.186667 0.856173 0.56 0.856173H13.58C13.972 0.856173 14.168 1.05217 14.168 1.44417V3.32017C14.168 4.36551 13.972 5.28951 13.58 6.09217C13.188 6.89484 12.656 7.59484 11.984 8.19217C11.3307 8.77084 10.5653 9.26551 9.688 9.67617C8.81067 10.0682 7.88667 10.3948 6.916 10.6562C5.94533 10.8988 4.94667 11.0855 3.92 11.2162C2.89333 11.3282 1.91333 11.4028 0.98 11.4402ZM6.104 16.8722H20.412C20.7853 16.8722 20.972 17.0588 20.972 17.4322V18.5802C20.972 18.9535 20.7853 19.1402 20.412 19.1402H6.104V20.3722H20.86C21.2333 20.3722 21.42 20.5588 21.42 20.9322V22.7242C21.42 23.0975 21.2333 23.2842 20.86 23.2842H1.372C0.998667 23.2842 0.812 23.0975 0.812 22.7242V13.4002C0.812 13.0268 0.998667 12.8402 1.372 12.8402H20.608C20.9813 12.8402 21.168 13.0268 21.168 13.4002V15.1082C21.168 15.4815 20.9813 15.6682 20.608 15.6682H6.104V16.8722Z" fill="#00BB86"/>
</svg>
